<mxfile host="app.diagrams.net" agent="Mozilla/5.0 (Windows NT 10.0; Win64; x64; rv:138.0) Gecko/20100101 Firefox/138.0" version="27.1.0">
  <diagram name="Page-1" id="2YBvvXClWsGukQMizWep">
    <mxGraphModel dx="1039" dy="556" grid="1" gridSize="10" guides="1" tooltips="1" connect="1" arrows="1" fold="1" page="1" pageScale="1" pageWidth="1100" pageHeight="850" math="0" shadow="0">
      <root>
        <mxCell id="0" />
        <mxCell id="1" parent="0" />
        <mxCell id="gZ4OyTbjbwFTQt0HmbJi-59" style="edgeStyle=orthogonalEdgeStyle;rounded=0;orthogonalLoop=1;jettySize=auto;html=1;exitX=0.5;exitY=1;exitDx=0;exitDy=0;dashed=1;endArrow=none;endFill=0;startFill=0;" edge="1" parent="1" source="gZ4OyTbjbwFTQt0HmbJi-58">
          <mxGeometry relative="1" as="geometry">
            <mxPoint x="565" y="1710" as="targetPoint" />
          </mxGeometry>
        </mxCell>
        <mxCell id="dSz6lFGVtchdJnZMV3Gq-63" style="edgeStyle=orthogonalEdgeStyle;rounded=0;orthogonalLoop=1;jettySize=auto;html=1;exitX=0.5;exitY=1;exitDx=0;exitDy=0;dashed=1;endArrow=none;startFill=0;" parent="1" source="dSz6lFGVtchdJnZMV3Gq-62" edge="1">
          <mxGeometry relative="1" as="geometry">
            <mxPoint x="680" y="960" as="targetPoint" />
          </mxGeometry>
        </mxCell>
        <mxCell id="dSz6lFGVtchdJnZMV3Gq-32" style="edgeStyle=orthogonalEdgeStyle;rounded=0;orthogonalLoop=1;jettySize=auto;html=1;exitX=0.5;exitY=1;exitDx=0;exitDy=0;dashed=1;endArrow=none;startFill=0;" parent="1" source="dSz6lFGVtchdJnZMV3Gq-7" edge="1">
          <mxGeometry relative="1" as="geometry">
            <mxPoint x="370" y="960" as="targetPoint" />
          </mxGeometry>
        </mxCell>
        <mxCell id="_0oTX7FY22H7sy7ic0yA-7" value="" style="shape=umlActor;verticalLabelPosition=bottom;verticalAlign=top;html=1;outlineConnect=0;" parent="1" vertex="1">
          <mxGeometry x="10" y="10" width="30" height="60" as="geometry" />
        </mxCell>
        <mxCell id="_0oTX7FY22H7sy7ic0yA-8" value="" style="endArrow=none;dashed=1;html=1;rounded=0;endSize=0;startSize=0;jumpSize=0;" parent="1" target="_0oTX7FY22H7sy7ic0yA-7" edge="1">
          <mxGeometry width="50" height="50" relative="1" as="geometry">
            <mxPoint x="25" y="380" as="sourcePoint" />
            <mxPoint x="15.283018867924511" y="170" as="targetPoint" />
          </mxGeometry>
        </mxCell>
        <mxCell id="_0oTX7FY22H7sy7ic0yA-9" value="&lt;div&gt;&lt;font style=&quot;font-size: 8px;&quot;&gt;starting_tab_screen&lt;/font&gt;&lt;/div&gt;" style="rounded=0;whiteSpace=wrap;html=1;" parent="1" vertex="1">
          <mxGeometry x="80" y="10" width="120" height="30" as="geometry" />
        </mxCell>
        <mxCell id="_0oTX7FY22H7sy7ic0yA-10" value="" style="endArrow=none;dashed=1;html=1;rounded=0;entryX=0.5;entryY=1;entryDx=0;entryDy=0;" parent="1" target="_0oTX7FY22H7sy7ic0yA-9" edge="1">
          <mxGeometry width="50" height="50" relative="1" as="geometry">
            <mxPoint x="140" y="380" as="sourcePoint" />
            <mxPoint x="590" y="280" as="targetPoint" />
          </mxGeometry>
        </mxCell>
        <mxCell id="_0oTX7FY22H7sy7ic0yA-11" value="" style="rounded=0;whiteSpace=wrap;html=1;rotation=90;fillColor=#dae8fc;strokeColor=#6c8ebf;" parent="1" vertex="1">
          <mxGeometry x="125.62" y="89.38" width="28.25" height="6.5" as="geometry" />
        </mxCell>
        <mxCell id="_0oTX7FY22H7sy7ic0yA-12" value="" style="endArrow=classic;html=1;rounded=0;entryX=0.5;entryY=1;entryDx=0;entryDy=0;jumpSize=0;" parent="1" target="_0oTX7FY22H7sy7ic0yA-11" edge="1">
          <mxGeometry width="50" height="50" relative="1" as="geometry">
            <mxPoint x="30" y="92" as="sourcePoint" />
            <mxPoint x="590" y="280" as="targetPoint" />
          </mxGeometry>
        </mxCell>
        <mxCell id="_0oTX7FY22H7sy7ic0yA-13" value="&lt;font style=&quot;font-size: 8px;&quot;&gt;select MMM&lt;/font&gt;" style="edgeLabel;html=1;align=center;verticalAlign=middle;resizable=0;points=[];" parent="_0oTX7FY22H7sy7ic0yA-12" vertex="1" connectable="0">
          <mxGeometry x="0.0113" relative="1" as="geometry">
            <mxPoint as="offset" />
          </mxGeometry>
        </mxCell>
        <mxCell id="_0oTX7FY22H7sy7ic0yA-16" value="&lt;font style=&quot;font-size: 8px;&quot;&gt;manage_MMM&lt;/font&gt;" style="rounded=0;whiteSpace=wrap;html=1;" parent="1" vertex="1">
          <mxGeometry x="210" y="10" width="100" height="30" as="geometry" />
        </mxCell>
        <mxCell id="_0oTX7FY22H7sy7ic0yA-17" value="&lt;div&gt;&lt;font style=&quot;font-size: 8px;&quot;&gt;MMM_starting_screen&lt;/font&gt;&lt;/div&gt;" style="rounded=0;whiteSpace=wrap;html=1;" parent="1" vertex="1">
          <mxGeometry x="320" y="10" width="100" height="30" as="geometry" />
        </mxCell>
        <mxCell id="_0oTX7FY22H7sy7ic0yA-18" value="&lt;font style=&quot;font-size: 8px;&quot;&gt;DBmanager&lt;/font&gt;" style="rounded=0;whiteSpace=wrap;html=1;" parent="1" vertex="1">
          <mxGeometry x="640" y="10" width="100" height="30" as="geometry" />
        </mxCell>
        <mxCell id="_0oTX7FY22H7sy7ic0yA-19" value="" style="endArrow=classic;html=1;rounded=0;exitX=0.75;exitY=0;exitDx=0;exitDy=0;entryX=0.034;entryY=0.85;entryDx=0;entryDy=0;entryPerimeter=0;" parent="1" source="_0oTX7FY22H7sy7ic0yA-11" target="_0oTX7FY22H7sy7ic0yA-22" edge="1">
          <mxGeometry width="50" height="50" relative="1" as="geometry">
            <mxPoint x="290" y="240" as="sourcePoint" />
            <mxPoint x="250" y="100" as="targetPoint" />
          </mxGeometry>
        </mxCell>
        <mxCell id="_0oTX7FY22H7sy7ic0yA-23" value="&lt;div&gt;&lt;font style=&quot;font-size: 8px;&quot;&gt;load_MMM()&lt;/font&gt;&lt;/div&gt;" style="edgeLabel;html=1;align=center;verticalAlign=middle;resizable=0;points=[];" parent="_0oTX7FY22H7sy7ic0yA-19" vertex="1" connectable="0">
          <mxGeometry x="-0.0145" relative="1" as="geometry">
            <mxPoint as="offset" />
          </mxGeometry>
        </mxCell>
        <mxCell id="_0oTX7FY22H7sy7ic0yA-20" value="" style="endArrow=none;dashed=1;html=1;rounded=0;exitX=0.5;exitY=1;exitDx=0;exitDy=0;" parent="1" source="_0oTX7FY22H7sy7ic0yA-16" edge="1">
          <mxGeometry width="50" height="50" relative="1" as="geometry">
            <mxPoint x="290" y="300" as="sourcePoint" />
            <mxPoint x="260" y="380" as="targetPoint" />
          </mxGeometry>
        </mxCell>
        <mxCell id="_0oTX7FY22H7sy7ic0yA-22" value="" style="rounded=0;whiteSpace=wrap;html=1;rotation=90;fillColor=#dae8fc;strokeColor=#6c8ebf;" parent="1" vertex="1">
          <mxGeometry x="117.56" y="227.44" width="284.38" height="6.5" as="geometry" />
        </mxCell>
        <mxCell id="_0oTX7FY22H7sy7ic0yA-24" value="" style="endArrow=none;dashed=1;html=1;rounded=0;entryX=0.5;entryY=1;entryDx=0;entryDy=0;" parent="1" target="_0oTX7FY22H7sy7ic0yA-18" edge="1">
          <mxGeometry width="50" height="50" relative="1" as="geometry">
            <mxPoint x="690" y="378.8235294117647" as="sourcePoint" />
            <mxPoint x="340" y="160" as="targetPoint" />
          </mxGeometry>
        </mxCell>
        <mxCell id="_0oTX7FY22H7sy7ic0yA-25" value="" style="endArrow=none;dashed=1;html=1;rounded=0;entryX=0.5;entryY=1;entryDx=0;entryDy=0;" parent="1" target="_0oTX7FY22H7sy7ic0yA-17" edge="1">
          <mxGeometry width="50" height="50" relative="1" as="geometry">
            <mxPoint x="370" y="380" as="sourcePoint" />
            <mxPoint x="340" y="120" as="targetPoint" />
          </mxGeometry>
        </mxCell>
        <mxCell id="_0oTX7FY22H7sy7ic0yA-26" value="" style="rounded=0;whiteSpace=wrap;html=1;rotation=90;fillColor=#dae8fc;strokeColor=#6c8ebf;" parent="1" vertex="1">
          <mxGeometry x="570.63" y="224.37" width="238.25" height="6.5" as="geometry" />
        </mxCell>
        <mxCell id="_0oTX7FY22H7sy7ic0yA-27" value="" style="endArrow=classic;html=1;rounded=0;entryX=0.027;entryY=0.851;entryDx=0;entryDy=0;entryPerimeter=0;" parent="1" target="_0oTX7FY22H7sy7ic0yA-26" edge="1">
          <mxGeometry width="50" height="50" relative="1" as="geometry">
            <mxPoint x="265" y="113" as="sourcePoint" />
            <mxPoint x="340" y="160" as="targetPoint" />
          </mxGeometry>
        </mxCell>
        <mxCell id="_0oTX7FY22H7sy7ic0yA-28" value="&lt;font style=&quot;font-size: 8px;&quot;&gt;load_ticketMap()&lt;/font&gt;" style="edgeLabel;html=1;align=center;verticalAlign=middle;resizable=0;points=[];" parent="_0oTX7FY22H7sy7ic0yA-27" vertex="1" connectable="0">
          <mxGeometry x="0.2927" relative="1" as="geometry">
            <mxPoint as="offset" />
          </mxGeometry>
        </mxCell>
        <mxCell id="_0oTX7FY22H7sy7ic0yA-30" value="" style="endArrow=none;dashed=1;html=1;rounded=0;entryX=0.109;entryY=1.123;entryDx=0;entryDy=0;startArrow=open;startFill=0;entryPerimeter=0;" parent="1" target="_0oTX7FY22H7sy7ic0yA-26" edge="1">
          <mxGeometry width="50" height="50" relative="1" as="geometry">
            <mxPoint x="263" y="133" as="sourcePoint" />
            <mxPoint x="340" y="160" as="targetPoint" />
          </mxGeometry>
        </mxCell>
        <mxCell id="_0oTX7FY22H7sy7ic0yA-31" value="&lt;font style=&quot;font-size: 8px;&quot;&gt;return results&lt;/font&gt;" style="edgeLabel;html=1;align=center;verticalAlign=middle;resizable=0;points=[];" parent="_0oTX7FY22H7sy7ic0yA-30" vertex="1" connectable="0">
          <mxGeometry x="-0.3036" y="-1" relative="1" as="geometry">
            <mxPoint as="offset" />
          </mxGeometry>
        </mxCell>
        <mxCell id="_0oTX7FY22H7sy7ic0yA-32" value="" style="rounded=0;whiteSpace=wrap;html=1;rotation=90;fillColor=#dae8fc;strokeColor=#6c8ebf;" parent="1" vertex="1">
          <mxGeometry x="340.63" y="174.37" width="58.25" height="6.5" as="geometry" />
        </mxCell>
        <mxCell id="_0oTX7FY22H7sy7ic0yA-33" value="" style="endArrow=classic;html=1;rounded=0;exitX=0.395;exitY=-0.326;exitDx=0;exitDy=0;exitPerimeter=0;entryX=0.051;entryY=1.122;entryDx=0;entryDy=0;entryPerimeter=0;" parent="1" edge="1">
          <mxGeometry width="50" height="50" relative="1" as="geometry">
            <mxPoint x="265.1189999999999" y="158.0200000000001" as="sourcePoint" />
            <mxPoint x="365.7069999999999" y="157.47599999999989" as="targetPoint" />
          </mxGeometry>
        </mxCell>
        <mxCell id="_0oTX7FY22H7sy7ic0yA-34" value="&lt;font style=&quot;font-size: 8px;&quot;&gt;display_startScreen()&lt;/font&gt;" style="edgeLabel;html=1;align=center;verticalAlign=middle;resizable=0;points=[];" parent="_0oTX7FY22H7sy7ic0yA-33" vertex="1" connectable="0">
          <mxGeometry x="0.2514" relative="1" as="geometry">
            <mxPoint x="-18" as="offset" />
          </mxGeometry>
        </mxCell>
        <mxCell id="_0oTX7FY22H7sy7ic0yA-35" value="" style="endArrow=classic;html=1;rounded=0;entryX=0.5;entryY=1;entryDx=0;entryDy=0;" parent="1" target="_0oTX7FY22H7sy7ic0yA-32" edge="1">
          <mxGeometry width="50" height="50" relative="1" as="geometry">
            <mxPoint x="30" y="180" as="sourcePoint" />
            <mxPoint x="340" y="180" as="targetPoint" />
          </mxGeometry>
        </mxCell>
        <mxCell id="_0oTX7FY22H7sy7ic0yA-36" value="&lt;font style=&quot;font-size: 8px;&quot;&gt;select bus/train routes&lt;/font&gt;" style="edgeLabel;html=1;align=center;verticalAlign=middle;resizable=0;points=[];" parent="_0oTX7FY22H7sy7ic0yA-35" vertex="1" connectable="0">
          <mxGeometry x="-0.0408" relative="1" as="geometry">
            <mxPoint x="-31" y="1" as="offset" />
          </mxGeometry>
        </mxCell>
        <mxCell id="_0oTX7FY22H7sy7ic0yA-37" value="" style="endArrow=open;html=1;rounded=0;exitX=0.75;exitY=1;exitDx=0;exitDy=0;entryX=0.366;entryY=-0.145;entryDx=0;entryDy=0;entryPerimeter=0;dashed=1;endFill=0;" parent="1" source="_0oTX7FY22H7sy7ic0yA-32" target="_0oTX7FY22H7sy7ic0yA-22" edge="1">
          <mxGeometry width="50" height="50" relative="1" as="geometry">
            <mxPoint x="290" y="230" as="sourcePoint" />
            <mxPoint x="340" y="180" as="targetPoint" />
          </mxGeometry>
        </mxCell>
        <mxCell id="_0oTX7FY22H7sy7ic0yA-38" value="&lt;font style=&quot;font-size: 8px;&quot;&gt;return selection&lt;/font&gt;" style="edgeLabel;html=1;align=center;verticalAlign=middle;resizable=0;points=[];" parent="_0oTX7FY22H7sy7ic0yA-37" vertex="1" connectable="0">
          <mxGeometry x="0.0363" y="2" relative="1" as="geometry">
            <mxPoint as="offset" />
          </mxGeometry>
        </mxCell>
        <mxCell id="_0oTX7FY22H7sy7ic0yA-39" value="" style="endArrow=classic;html=1;rounded=0;exitX=0.451;exitY=0.036;exitDx=0;exitDy=0;exitPerimeter=0;" parent="1" source="_0oTX7FY22H7sy7ic0yA-22" edge="1">
          <mxGeometry width="50" height="50" relative="1" as="geometry">
            <mxPoint x="300" y="240" as="sourcePoint" />
            <mxPoint x="685" y="220" as="targetPoint" />
          </mxGeometry>
        </mxCell>
        <mxCell id="_0oTX7FY22H7sy7ic0yA-40" value="&lt;font style=&quot;font-size: 8px;&quot;&gt;load_routes()&lt;/font&gt;" style="edgeLabel;html=1;align=center;verticalAlign=middle;resizable=0;points=[];" parent="_0oTX7FY22H7sy7ic0yA-39" vertex="1" connectable="0">
          <mxGeometry x="-0.1713" relative="1" as="geometry">
            <mxPoint as="offset" />
          </mxGeometry>
        </mxCell>
        <mxCell id="_0oTX7FY22H7sy7ic0yA-41" value="" style="endArrow=open;html=1;rounded=0;dashed=1;endFill=0;entryX=0.515;entryY=-0.145;entryDx=0;entryDy=0;entryPerimeter=0;" parent="1" target="_0oTX7FY22H7sy7ic0yA-22" edge="1">
          <mxGeometry width="50" height="50" relative="1" as="geometry">
            <mxPoint x="685" y="235" as="sourcePoint" />
            <mxPoint x="260" y="230" as="targetPoint" />
          </mxGeometry>
        </mxCell>
        <mxCell id="_0oTX7FY22H7sy7ic0yA-42" value="&lt;font style=&quot;font-size: 8px;&quot;&gt;return results&lt;/font&gt;" style="edgeLabel;html=1;align=center;verticalAlign=middle;resizable=0;points=[];" parent="_0oTX7FY22H7sy7ic0yA-41" vertex="1" connectable="0">
          <mxGeometry x="0.2011" y="-1" relative="1" as="geometry">
            <mxPoint as="offset" />
          </mxGeometry>
        </mxCell>
        <mxCell id="_0oTX7FY22H7sy7ic0yA-44" style="edgeStyle=orthogonalEdgeStyle;rounded=0;orthogonalLoop=1;jettySize=auto;html=1;exitX=0.5;exitY=1;exitDx=0;exitDy=0;endArrow=none;startFill=0;dashed=1;" parent="1" source="_0oTX7FY22H7sy7ic0yA-43" edge="1">
          <mxGeometry relative="1" as="geometry">
            <mxPoint x="470" y="380" as="targetPoint" />
          </mxGeometry>
        </mxCell>
        <mxCell id="gZ4OyTbjbwFTQt0HmbJi-126" value="" style="rounded=0;whiteSpace=wrap;html=1;rotation=90;fillColor=#dae8fc;strokeColor=#6c8ebf;" vertex="1" parent="1">
          <mxGeometry x="535.99" y="1434.01" width="54.52" height="6.5" as="geometry" />
        </mxCell>
        <mxCell id="_0oTX7FY22H7sy7ic0yA-43" value="&lt;font size=&quot;1&quot;&gt;routes_screen&lt;/font&gt;" style="rounded=0;whiteSpace=wrap;html=1;" parent="1" vertex="1">
          <mxGeometry x="430" y="10" width="80" height="30" as="geometry" />
        </mxCell>
        <mxCell id="_0oTX7FY22H7sy7ic0yA-45" value="" style="rounded=0;whiteSpace=wrap;html=1;rotation=90;fillColor=#dae8fc;strokeColor=#6c8ebf;" parent="1" vertex="1">
          <mxGeometry x="445.63" y="269.37" width="48.25" height="6.5" as="geometry" />
        </mxCell>
        <mxCell id="_0oTX7FY22H7sy7ic0yA-46" value="" style="endArrow=classic;html=1;rounded=0;exitX=0.6;exitY=-0.054;exitDx=0;exitDy=0;exitPerimeter=0;entryX=0.25;entryY=1;entryDx=0;entryDy=0;" parent="1" source="_0oTX7FY22H7sy7ic0yA-22" target="_0oTX7FY22H7sy7ic0yA-45" edge="1">
          <mxGeometry width="50" height="50" relative="1" as="geometry">
            <mxPoint x="290" y="250" as="sourcePoint" />
            <mxPoint x="340" y="200" as="targetPoint" />
          </mxGeometry>
        </mxCell>
        <mxCell id="_0oTX7FY22H7sy7ic0yA-47" value="&lt;font size=&quot;1&quot;&gt;display_routes()&lt;/font&gt;" style="edgeLabel;html=1;align=center;verticalAlign=middle;resizable=0;points=[];" parent="_0oTX7FY22H7sy7ic0yA-46" vertex="1" connectable="0">
          <mxGeometry x="0.4253" y="-2" relative="1" as="geometry">
            <mxPoint x="3" as="offset" />
          </mxGeometry>
        </mxCell>
        <mxCell id="_0oTX7FY22H7sy7ic0yA-49" value="" style="endArrow=classic;html=1;rounded=0;entryX=0.648;entryY=1.213;entryDx=0;entryDy=0;entryPerimeter=0;" parent="1" target="_0oTX7FY22H7sy7ic0yA-45" edge="1">
          <mxGeometry width="50" height="50" relative="1" as="geometry">
            <mxPoint x="30" y="280" as="sourcePoint" />
            <mxPoint x="340" y="210" as="targetPoint" />
          </mxGeometry>
        </mxCell>
        <mxCell id="_0oTX7FY22H7sy7ic0yA-50" value="&lt;font size=&quot;1&quot;&gt;select route&lt;/font&gt;" style="edgeLabel;html=1;align=center;verticalAlign=middle;resizable=0;points=[];" parent="_0oTX7FY22H7sy7ic0yA-49" vertex="1" connectable="0">
          <mxGeometry x="-0.7361" relative="1" as="geometry">
            <mxPoint as="offset" />
          </mxGeometry>
        </mxCell>
        <mxCell id="_0oTX7FY22H7sy7ic0yA-51" value="" style="endArrow=open;html=1;rounded=0;dashed=1;endFill=0;entryX=0.704;entryY=-0.145;entryDx=0;entryDy=0;entryPerimeter=0;exitX=0.868;exitY=0.942;exitDx=0;exitDy=0;exitPerimeter=0;" parent="1" source="_0oTX7FY22H7sy7ic0yA-45" target="_0oTX7FY22H7sy7ic0yA-22" edge="1">
          <mxGeometry width="50" height="50" relative="1" as="geometry">
            <mxPoint x="460" y="290" as="sourcePoint" />
            <mxPoint x="340" y="210" as="targetPoint" />
          </mxGeometry>
        </mxCell>
        <mxCell id="_0oTX7FY22H7sy7ic0yA-52" value="&lt;font style=&quot;font-size: 8px;&quot;&gt;return selection&lt;/font&gt;" style="edgeLabel;html=1;align=center;verticalAlign=middle;resizable=0;points=[];" parent="_0oTX7FY22H7sy7ic0yA-51" vertex="1" connectable="0">
          <mxGeometry x="0.1628" relative="1" as="geometry">
            <mxPoint as="offset" />
          </mxGeometry>
        </mxCell>
        <mxCell id="_0oTX7FY22H7sy7ic0yA-53" value="" style="endArrow=classic;html=1;rounded=0;exitX=0.811;exitY=0.127;exitDx=0;exitDy=0;exitPerimeter=0;" parent="1" source="_0oTX7FY22H7sy7ic0yA-22" edge="1">
          <mxGeometry width="50" height="50" relative="1" as="geometry">
            <mxPoint x="290" y="260" as="sourcePoint" />
            <mxPoint x="690" y="320" as="targetPoint" />
          </mxGeometry>
        </mxCell>
        <mxCell id="_0oTX7FY22H7sy7ic0yA-54" value="&lt;font style=&quot;font-size: 8px;&quot;&gt;load_routeInfo()&lt;/font&gt;" style="edgeLabel;html=1;align=center;verticalAlign=middle;resizable=0;points=[];" parent="_0oTX7FY22H7sy7ic0yA-53" vertex="1" connectable="0">
          <mxGeometry x="0.182" y="-1" relative="1" as="geometry">
            <mxPoint as="offset" />
          </mxGeometry>
        </mxCell>
        <mxCell id="_0oTX7FY22H7sy7ic0yA-55" value="&lt;font style=&quot;font-size: 8px;&quot;&gt;route_info_screen&lt;/font&gt;" style="rounded=0;whiteSpace=wrap;html=1;" parent="1" vertex="1">
          <mxGeometry x="520" y="10" width="100" height="30" as="geometry" />
        </mxCell>
        <mxCell id="_0oTX7FY22H7sy7ic0yA-61" value="" style="endArrow=open;dashed=1;html=1;rounded=0;endFill=0;entryX=0.875;entryY=-0.235;entryDx=0;entryDy=0;entryPerimeter=0;" parent="1" target="_0oTX7FY22H7sy7ic0yA-22" edge="1">
          <mxGeometry width="50" height="50" relative="1" as="geometry">
            <mxPoint x="690" y="340" as="sourcePoint" />
            <mxPoint x="380" y="330" as="targetPoint" />
          </mxGeometry>
        </mxCell>
        <mxCell id="_0oTX7FY22H7sy7ic0yA-62" value="&lt;font size=&quot;1&quot;&gt;return results&lt;/font&gt;" style="edgeLabel;html=1;align=center;verticalAlign=middle;resizable=0;points=[];" parent="_0oTX7FY22H7sy7ic0yA-61" vertex="1" connectable="0">
          <mxGeometry x="0.2305" relative="1" as="geometry">
            <mxPoint as="offset" />
          </mxGeometry>
        </mxCell>
        <mxCell id="_0oTX7FY22H7sy7ic0yA-63" value="" style="edgeStyle=orthogonalEdgeStyle;rounded=0;orthogonalLoop=1;jettySize=auto;html=1;exitX=0.5;exitY=1;exitDx=0;exitDy=0;dashed=1;endArrow=none;startFill=0;" parent="1" source="_0oTX7FY22H7sy7ic0yA-55" target="_0oTX7FY22H7sy7ic0yA-58" edge="1">
          <mxGeometry relative="1" as="geometry">
            <mxPoint x="570" y="680" as="targetPoint" />
            <mxPoint x="570" y="40" as="sourcePoint" />
          </mxGeometry>
        </mxCell>
        <mxCell id="_0oTX7FY22H7sy7ic0yA-58" value="" style="rounded=0;whiteSpace=wrap;html=1;rotation=90;fillColor=#dae8fc;strokeColor=#6c8ebf;" parent="1" vertex="1">
          <mxGeometry x="556" y="356" width="28" height="6.5" as="geometry" />
        </mxCell>
        <mxCell id="_0oTX7FY22H7sy7ic0yA-64" value="" style="endArrow=classic;html=1;rounded=0;exitX=0.956;exitY=-0.145;exitDx=0;exitDy=0;exitPerimeter=0;" parent="1" source="_0oTX7FY22H7sy7ic0yA-22" edge="1">
          <mxGeometry width="50" height="50" relative="1" as="geometry">
            <mxPoint x="330" y="500" as="sourcePoint" />
            <mxPoint x="570" y="359" as="targetPoint" />
          </mxGeometry>
        </mxCell>
        <mxCell id="_0oTX7FY22H7sy7ic0yA-65" value="&lt;font style=&quot;font-size: 8px;&quot;&gt;display_routeInfo()&lt;/font&gt;" style="edgeLabel;html=1;align=center;verticalAlign=middle;resizable=0;points=[];" parent="_0oTX7FY22H7sy7ic0yA-64" vertex="1" connectable="0">
          <mxGeometry x="0.0368" y="1" relative="1" as="geometry">
            <mxPoint as="offset" />
          </mxGeometry>
        </mxCell>
        <mxCell id="dSz6lFGVtchdJnZMV3Gq-1" value="" style="shape=umlActor;verticalLabelPosition=bottom;verticalAlign=top;html=1;outlineConnect=0;" parent="1" vertex="1">
          <mxGeometry x="10" y="440" width="30" height="60" as="geometry" />
        </mxCell>
        <mxCell id="dSz6lFGVtchdJnZMV3Gq-2" value="" style="endArrow=none;dashed=1;html=1;rounded=0;endSize=0;startSize=0;jumpSize=0;" parent="1" target="dSz6lFGVtchdJnZMV3Gq-1" edge="1">
          <mxGeometry width="50" height="50" relative="1" as="geometry">
            <mxPoint x="25" y="960" as="sourcePoint" />
            <mxPoint x="15.283018867924511" y="600" as="targetPoint" />
          </mxGeometry>
        </mxCell>
        <mxCell id="dSz6lFGVtchdJnZMV3Gq-23" style="edgeStyle=orthogonalEdgeStyle;rounded=0;orthogonalLoop=1;jettySize=auto;html=1;exitX=0.5;exitY=1;exitDx=0;exitDy=0;dashed=1;endArrow=none;startFill=0;" parent="1" source="dSz6lFGVtchdJnZMV3Gq-3" edge="1">
          <mxGeometry relative="1" as="geometry">
            <mxPoint x="140" y="960" as="targetPoint" />
          </mxGeometry>
        </mxCell>
        <mxCell id="dSz6lFGVtchdJnZMV3Gq-3" value="&lt;div&gt;&lt;font style=&quot;font-size: 8px;&quot;&gt;starting_tab_screen&lt;/font&gt;&lt;/div&gt;" style="rounded=0;whiteSpace=wrap;html=1;" parent="1" vertex="1">
          <mxGeometry x="80" y="440" width="120" height="30" as="geometry" />
        </mxCell>
        <mxCell id="dSz6lFGVtchdJnZMV3Gq-4" value="" style="rounded=0;whiteSpace=wrap;html=1;rotation=90;fillColor=#dae8fc;strokeColor=#6c8ebf;" parent="1" vertex="1">
          <mxGeometry x="132.55" y="522.45" width="14.38" height="6.5" as="geometry" />
        </mxCell>
        <mxCell id="dSz6lFGVtchdJnZMV3Gq-27" style="edgeStyle=orthogonalEdgeStyle;rounded=0;orthogonalLoop=1;jettySize=auto;html=1;exitX=0.5;exitY=1;exitDx=0;exitDy=0;endArrow=none;startFill=0;dashed=1;" parent="1" source="dSz6lFGVtchdJnZMV3Gq-6" edge="1">
          <mxGeometry relative="1" as="geometry">
            <mxPoint x="260" y="960" as="targetPoint" />
          </mxGeometry>
        </mxCell>
        <mxCell id="dSz6lFGVtchdJnZMV3Gq-6" value="&lt;font style=&quot;font-size: 8px;&quot;&gt;manage_MMM&lt;/font&gt;" style="rounded=0;whiteSpace=wrap;html=1;" parent="1" vertex="1">
          <mxGeometry x="210" y="440" width="100" height="30" as="geometry" />
        </mxCell>
        <mxCell id="dSz6lFGVtchdJnZMV3Gq-7" value="&lt;div&gt;&lt;font style=&quot;font-size: 8px;&quot;&gt;MMM_starting_screen&lt;/font&gt;&lt;/div&gt;" style="rounded=0;whiteSpace=wrap;html=1;" parent="1" vertex="1">
          <mxGeometry x="320" y="440" width="100" height="30" as="geometry" />
        </mxCell>
        <mxCell id="dSz6lFGVtchdJnZMV3Gq-30" style="edgeStyle=orthogonalEdgeStyle;rounded=0;orthogonalLoop=1;jettySize=auto;html=1;exitX=0.5;exitY=1;exitDx=0;exitDy=0;endArrow=none;startFill=0;dashed=1;" parent="1" source="dSz6lFGVtchdJnZMV3Gq-8" edge="1">
          <mxGeometry relative="1" as="geometry">
            <mxPoint x="900" y="960" as="targetPoint" />
          </mxGeometry>
        </mxCell>
        <mxCell id="dSz6lFGVtchdJnZMV3Gq-8" value="&lt;font style=&quot;font-size: 8px;&quot;&gt;DBmanager&lt;/font&gt;" style="rounded=0;whiteSpace=wrap;html=1;" parent="1" vertex="1">
          <mxGeometry x="850" y="440" width="100" height="30" as="geometry" />
        </mxCell>
        <mxCell id="dSz6lFGVtchdJnZMV3Gq-9" value="" style="endArrow=classic;html=1;rounded=0;entryX=0.034;entryY=0.85;entryDx=0;entryDy=0;entryPerimeter=0;" parent="1" edge="1">
          <mxGeometry width="50" height="50" relative="1" as="geometry">
            <mxPoint x="150" y="528" as="sourcePoint" />
            <mxPoint x="257" y="528" as="targetPoint" />
          </mxGeometry>
        </mxCell>
        <mxCell id="dSz6lFGVtchdJnZMV3Gq-10" value="&lt;div&gt;&lt;font style=&quot;font-size: 8px;&quot;&gt;load_MMM()&lt;/font&gt;&lt;/div&gt;" style="edgeLabel;html=1;align=center;verticalAlign=middle;resizable=0;points=[];" parent="dSz6lFGVtchdJnZMV3Gq-9" vertex="1" connectable="0">
          <mxGeometry x="-0.0145" relative="1" as="geometry">
            <mxPoint as="offset" />
          </mxGeometry>
        </mxCell>
        <mxCell id="dSz6lFGVtchdJnZMV3Gq-11" value="" style="endArrow=classic;html=1;rounded=0;" parent="1" edge="1">
          <mxGeometry width="50" height="50" relative="1" as="geometry">
            <mxPoint x="265" y="540" as="sourcePoint" />
            <mxPoint x="890" y="540" as="targetPoint" />
          </mxGeometry>
        </mxCell>
        <mxCell id="dSz6lFGVtchdJnZMV3Gq-12" value="&lt;font style=&quot;font-size: 8px;&quot;&gt;load_ticketMap()&lt;/font&gt;" style="edgeLabel;html=1;align=center;verticalAlign=middle;resizable=0;points=[];" parent="dSz6lFGVtchdJnZMV3Gq-11" vertex="1" connectable="0">
          <mxGeometry x="0.2927" relative="1" as="geometry">
            <mxPoint as="offset" />
          </mxGeometry>
        </mxCell>
        <mxCell id="dSz6lFGVtchdJnZMV3Gq-13" value="" style="endArrow=none;dashed=1;html=1;rounded=0;startArrow=open;startFill=0;" parent="1" edge="1">
          <mxGeometry width="50" height="50" relative="1" as="geometry">
            <mxPoint x="270" y="560" as="sourcePoint" />
            <mxPoint x="890" y="560" as="targetPoint" />
          </mxGeometry>
        </mxCell>
        <mxCell id="dSz6lFGVtchdJnZMV3Gq-14" value="&lt;font style=&quot;font-size: 8px;&quot;&gt;return results&lt;/font&gt;" style="edgeLabel;html=1;align=center;verticalAlign=middle;resizable=0;points=[];" parent="dSz6lFGVtchdJnZMV3Gq-13" vertex="1" connectable="0">
          <mxGeometry x="-0.3036" y="-1" relative="1" as="geometry">
            <mxPoint as="offset" />
          </mxGeometry>
        </mxCell>
        <mxCell id="dSz6lFGVtchdJnZMV3Gq-15" value="" style="rounded=0;whiteSpace=wrap;html=1;rotation=90;fillColor=#dae8fc;strokeColor=#6c8ebf;" parent="1" vertex="1">
          <mxGeometry x="340.63" y="604.37" width="58.25" height="6.5" as="geometry" />
        </mxCell>
        <mxCell id="dSz6lFGVtchdJnZMV3Gq-16" value="" style="endArrow=classic;html=1;rounded=0;exitX=0.395;exitY=-0.326;exitDx=0;exitDy=0;exitPerimeter=0;entryX=0.051;entryY=1.122;entryDx=0;entryDy=0;entryPerimeter=0;" parent="1" edge="1">
          <mxGeometry width="50" height="50" relative="1" as="geometry">
            <mxPoint x="265.1189999999999" y="588.0200000000001" as="sourcePoint" />
            <mxPoint x="365.7069999999999" y="587.4759999999999" as="targetPoint" />
          </mxGeometry>
        </mxCell>
        <mxCell id="dSz6lFGVtchdJnZMV3Gq-17" value="&lt;font style=&quot;font-size: 8px;&quot;&gt;display_startScreen()&lt;/font&gt;" style="edgeLabel;html=1;align=center;verticalAlign=middle;resizable=0;points=[];" parent="dSz6lFGVtchdJnZMV3Gq-16" vertex="1" connectable="0">
          <mxGeometry x="0.2514" relative="1" as="geometry">
            <mxPoint x="-18" as="offset" />
          </mxGeometry>
        </mxCell>
        <mxCell id="dSz6lFGVtchdJnZMV3Gq-19" value="" style="endArrow=open;html=1;rounded=0;exitX=0.75;exitY=1;exitDx=0;exitDy=0;entryX=0.366;entryY=-0.145;entryDx=0;entryDy=0;entryPerimeter=0;dashed=1;endFill=0;" parent="1" source="dSz6lFGVtchdJnZMV3Gq-15" edge="1">
          <mxGeometry width="50" height="50" relative="1" as="geometry">
            <mxPoint x="290" y="660" as="sourcePoint" />
            <mxPoint x="264" y="623" as="targetPoint" />
          </mxGeometry>
        </mxCell>
        <mxCell id="dSz6lFGVtchdJnZMV3Gq-20" value="&lt;font style=&quot;font-size: 8px;&quot;&gt;return selection&lt;/font&gt;" style="edgeLabel;html=1;align=center;verticalAlign=middle;resizable=0;points=[];" parent="dSz6lFGVtchdJnZMV3Gq-19" vertex="1" connectable="0">
          <mxGeometry x="0.0363" y="2" relative="1" as="geometry">
            <mxPoint as="offset" />
          </mxGeometry>
        </mxCell>
        <mxCell id="dSz6lFGVtchdJnZMV3Gq-39" style="edgeStyle=orthogonalEdgeStyle;rounded=0;orthogonalLoop=1;jettySize=auto;html=1;exitX=0.5;exitY=1;exitDx=0;exitDy=0;endArrow=none;startFill=0;dashed=1;" parent="1" source="dSz6lFGVtchdJnZMV3Gq-21" edge="1">
          <mxGeometry relative="1" as="geometry">
            <mxPoint x="470" y="960" as="targetPoint" />
          </mxGeometry>
        </mxCell>
        <mxCell id="dSz6lFGVtchdJnZMV3Gq-21" value="&lt;font size=&quot;1&quot;&gt;ticketsInfo_screen&lt;/font&gt;" style="rounded=0;whiteSpace=wrap;html=1;" parent="1" vertex="1">
          <mxGeometry x="430" y="440" width="80" height="30" as="geometry" />
        </mxCell>
        <mxCell id="dSz6lFGVtchdJnZMV3Gq-47" style="edgeStyle=orthogonalEdgeStyle;rounded=0;orthogonalLoop=1;jettySize=auto;html=1;exitX=0.5;exitY=1;exitDx=0;exitDy=0;dashed=1;endArrow=none;endFill=0;startFill=0;" parent="1" source="dSz6lFGVtchdJnZMV3Gq-22" edge="1">
          <mxGeometry relative="1" as="geometry">
            <mxPoint x="570" y="960" as="targetPoint" />
          </mxGeometry>
        </mxCell>
        <mxCell id="dSz6lFGVtchdJnZMV3Gq-22" value="&lt;font style=&quot;font-size: 8px;&quot;&gt;info_screen&lt;/font&gt;" style="rounded=0;whiteSpace=wrap;html=1;" parent="1" vertex="1">
          <mxGeometry x="520" y="440" width="100" height="30" as="geometry" />
        </mxCell>
        <mxCell id="dSz6lFGVtchdJnZMV3Gq-24" value="" style="endArrow=classic;html=1;rounded=0;" parent="1" edge="1">
          <mxGeometry width="50" height="50" relative="1" as="geometry">
            <mxPoint x="32.550000000000004" y="519.38" as="sourcePoint" />
            <mxPoint x="132.55" y="519.38" as="targetPoint" />
          </mxGeometry>
        </mxCell>
        <mxCell id="dSz6lFGVtchdJnZMV3Gq-33" value="&lt;font style=&quot;font-size: 8px;&quot;&gt;select MMM&lt;/font&gt;" style="edgeLabel;html=1;align=center;verticalAlign=middle;resizable=0;points=[];" parent="dSz6lFGVtchdJnZMV3Gq-24" vertex="1" connectable="0">
          <mxGeometry x="0.0379" y="1" relative="1" as="geometry">
            <mxPoint as="offset" />
          </mxGeometry>
        </mxCell>
        <mxCell id="dSz6lFGVtchdJnZMV3Gq-28" value="" style="rounded=0;whiteSpace=wrap;html=1;rotation=90;fillColor=#dae8fc;strokeColor=#6c8ebf;" parent="1" vertex="1">
          <mxGeometry x="51.43" y="730.35" width="417.15" height="6.5" as="geometry" />
        </mxCell>
        <mxCell id="dSz6lFGVtchdJnZMV3Gq-34" value="" style="endArrow=classic;html=1;rounded=0;" parent="1" edge="1">
          <mxGeometry width="50" height="50" relative="1" as="geometry">
            <mxPoint x="30" y="610" as="sourcePoint" />
            <mxPoint x="360" y="610" as="targetPoint" />
          </mxGeometry>
        </mxCell>
        <mxCell id="dSz6lFGVtchdJnZMV3Gq-31" value="" style="rounded=0;whiteSpace=wrap;html=1;rotation=90;fillColor=#dae8fc;strokeColor=#6c8ebf;" parent="1" vertex="1">
          <mxGeometry x="709.05" y="722.58" width="383.42" height="6.5" as="geometry" />
        </mxCell>
        <mxCell id="dSz6lFGVtchdJnZMV3Gq-18" value="&lt;font style=&quot;font-size: 8px;&quot;&gt;select tickets info&lt;/font&gt;" style="edgeLabel;html=1;align=center;verticalAlign=middle;resizable=0;points=[];" parent="1" vertex="1" connectable="0">
          <mxGeometry x="159.99597328902837" y="609.8613232598984" as="geometry" />
        </mxCell>
        <mxCell id="dSz6lFGVtchdJnZMV3Gq-35" value="" style="endArrow=classic;html=1;rounded=0;" parent="1" edge="1">
          <mxGeometry width="50" height="50" relative="1" as="geometry">
            <mxPoint x="270" y="650" as="sourcePoint" />
            <mxPoint x="890" y="650" as="targetPoint" />
          </mxGeometry>
        </mxCell>
        <mxCell id="dSz6lFGVtchdJnZMV3Gq-36" value="&lt;font style=&quot;font-size: 8px;&quot;&gt;load_ticketsInfo()&lt;/font&gt;" style="edgeLabel;html=1;align=center;verticalAlign=middle;resizable=0;points=[];" parent="dSz6lFGVtchdJnZMV3Gq-35" vertex="1" connectable="0">
          <mxGeometry x="-0.1543" relative="1" as="geometry">
            <mxPoint x="-23" as="offset" />
          </mxGeometry>
        </mxCell>
        <mxCell id="dSz6lFGVtchdJnZMV3Gq-37" value="" style="endArrow=open;dashed=1;html=1;rounded=0;endFill=0;" parent="1" edge="1">
          <mxGeometry width="50" height="50" relative="1" as="geometry">
            <mxPoint x="890" y="670" as="sourcePoint" />
            <mxPoint x="270" y="670" as="targetPoint" />
          </mxGeometry>
        </mxCell>
        <mxCell id="dSz6lFGVtchdJnZMV3Gq-38" value="&lt;font style=&quot;font-size: 8px;&quot;&gt;return results&lt;/font&gt;" style="edgeLabel;html=1;align=center;verticalAlign=middle;resizable=0;points=[];" parent="dSz6lFGVtchdJnZMV3Gq-37" vertex="1" connectable="0">
          <mxGeometry x="0.2266" y="1" relative="1" as="geometry">
            <mxPoint as="offset" />
          </mxGeometry>
        </mxCell>
        <mxCell id="dSz6lFGVtchdJnZMV3Gq-40" value="" style="rounded=0;whiteSpace=wrap;html=1;rotation=90;fillColor=#dae8fc;strokeColor=#6c8ebf;" parent="1" vertex="1">
          <mxGeometry x="441.995" y="709.995" width="58.25" height="6.5" as="geometry" />
        </mxCell>
        <mxCell id="dSz6lFGVtchdJnZMV3Gq-41" value="" style="endArrow=classic;html=1;rounded=0;" parent="1" edge="1">
          <mxGeometry width="50" height="50" relative="1" as="geometry">
            <mxPoint x="270" y="690" as="sourcePoint" />
            <mxPoint x="460" y="690" as="targetPoint" />
          </mxGeometry>
        </mxCell>
        <mxCell id="dSz6lFGVtchdJnZMV3Gq-42" value="&lt;div&gt;&lt;font style=&quot;font-size: 8px;&quot;&gt;display_ticketsInfo()&lt;/font&gt;&lt;/div&gt;" style="edgeLabel;html=1;align=center;verticalAlign=middle;resizable=0;points=[];" parent="dSz6lFGVtchdJnZMV3Gq-41" vertex="1" connectable="0">
          <mxGeometry x="-0.5162" y="-2" relative="1" as="geometry">
            <mxPoint as="offset" />
          </mxGeometry>
        </mxCell>
        <mxCell id="dSz6lFGVtchdJnZMV3Gq-43" value="" style="endArrow=classic;html=1;rounded=0;" parent="1" edge="1">
          <mxGeometry width="50" height="50" relative="1" as="geometry">
            <mxPoint x="30" y="710" as="sourcePoint" />
            <mxPoint x="460" y="710" as="targetPoint" />
          </mxGeometry>
        </mxCell>
        <mxCell id="dSz6lFGVtchdJnZMV3Gq-44" value="&lt;font style=&quot;font-size: 8px;&quot;&gt;select buy monthly card&lt;/font&gt;" style="edgeLabel;html=1;align=center;verticalAlign=middle;resizable=0;points=[];" parent="dSz6lFGVtchdJnZMV3Gq-43" vertex="1" connectable="0">
          <mxGeometry x="-0.7828" y="-2" relative="1" as="geometry">
            <mxPoint x="63" y="-2" as="offset" />
          </mxGeometry>
        </mxCell>
        <mxCell id="dSz6lFGVtchdJnZMV3Gq-45" value="" style="endArrow=open;dashed=1;html=1;rounded=0;endFill=0;" parent="1" edge="1">
          <mxGeometry width="50" height="50" relative="1" as="geometry">
            <mxPoint x="460" y="730" as="sourcePoint" />
            <mxPoint x="270" y="730" as="targetPoint" />
          </mxGeometry>
        </mxCell>
        <mxCell id="dSz6lFGVtchdJnZMV3Gq-46" value="&lt;font style=&quot;font-size: 8px;&quot;&gt;return selection&lt;/font&gt;" style="edgeLabel;html=1;align=center;verticalAlign=middle;resizable=0;points=[];" parent="dSz6lFGVtchdJnZMV3Gq-45" vertex="1" connectable="0">
          <mxGeometry x="0.5786" y="1" relative="1" as="geometry">
            <mxPoint x="10" as="offset" />
          </mxGeometry>
        </mxCell>
        <mxCell id="dSz6lFGVtchdJnZMV3Gq-48" value="" style="rounded=0;whiteSpace=wrap;html=1;rotation=90;fillColor=#dae8fc;strokeColor=#6c8ebf;" parent="1" vertex="1">
          <mxGeometry x="481.6" y="835.27" width="179.04" height="6.5" as="geometry" />
        </mxCell>
        <mxCell id="dSz6lFGVtchdJnZMV3Gq-49" value="" style="endArrow=classic;html=1;rounded=0;" parent="1" edge="1">
          <mxGeometry width="50" height="50" relative="1" as="geometry">
            <mxPoint x="270" y="750" as="sourcePoint" />
            <mxPoint x="560" y="750" as="targetPoint" />
          </mxGeometry>
        </mxCell>
        <mxCell id="dSz6lFGVtchdJnZMV3Gq-50" value="&lt;font style=&quot;font-size: 8px;&quot;&gt;display_infoScreen()&lt;/font&gt;" style="edgeLabel;html=1;align=center;verticalAlign=middle;resizable=0;points=[];" parent="dSz6lFGVtchdJnZMV3Gq-49" vertex="1" connectable="0">
          <mxGeometry x="-0.1415" y="-1" relative="1" as="geometry">
            <mxPoint as="offset" />
          </mxGeometry>
        </mxCell>
        <mxCell id="dSz6lFGVtchdJnZMV3Gq-51" value="" style="endArrow=classic;html=1;rounded=0;" parent="1" edge="1">
          <mxGeometry width="50" height="50" relative="1" as="geometry">
            <mxPoint x="30" y="770" as="sourcePoint" />
            <mxPoint x="560" y="770" as="targetPoint" />
          </mxGeometry>
        </mxCell>
        <mxCell id="dSz6lFGVtchdJnZMV3Gq-52" value="&lt;font style=&quot;font-size: 8px;&quot;&gt;enters info&lt;/font&gt;" style="edgeLabel;html=1;align=center;verticalAlign=middle;resizable=0;points=[];" parent="dSz6lFGVtchdJnZMV3Gq-51" vertex="1" connectable="0">
          <mxGeometry x="-0.6952" y="-3" relative="1" as="geometry">
            <mxPoint as="offset" />
          </mxGeometry>
        </mxCell>
        <mxCell id="dSz6lFGVtchdJnZMV3Gq-53" value="" style="endArrow=classic;html=1;rounded=0;" parent="1" edge="1">
          <mxGeometry width="50" height="50" relative="1" as="geometry">
            <mxPoint x="580" y="790" as="sourcePoint" />
            <mxPoint x="890" y="790" as="targetPoint" />
          </mxGeometry>
        </mxCell>
        <mxCell id="dSz6lFGVtchdJnZMV3Gq-54" value="&lt;font size=&quot;1&quot;&gt;info_check()&lt;/font&gt;" style="edgeLabel;html=1;align=center;verticalAlign=middle;resizable=0;points=[];" parent="dSz6lFGVtchdJnZMV3Gq-53" vertex="1" connectable="0">
          <mxGeometry x="-0.4585" y="2" relative="1" as="geometry">
            <mxPoint x="13" as="offset" />
          </mxGeometry>
        </mxCell>
        <mxCell id="dSz6lFGVtchdJnZMV3Gq-55" value="" style="endArrow=open;dashed=1;html=1;rounded=0;endFill=0;" parent="1" edge="1">
          <mxGeometry width="50" height="50" relative="1" as="geometry">
            <mxPoint x="890" y="810" as="sourcePoint" />
            <mxPoint x="580" y="810" as="targetPoint" />
          </mxGeometry>
        </mxCell>
        <mxCell id="dSz6lFGVtchdJnZMV3Gq-56" value="" style="rounded=0;whiteSpace=wrap;html=1;fillColor=none;" parent="1" vertex="1">
          <mxGeometry x="169.37" y="800" width="660" height="80" as="geometry" />
        </mxCell>
        <mxCell id="dSz6lFGVtchdJnZMV3Gq-57" value="" style="verticalLabelPosition=bottom;verticalAlign=top;html=1;shape=card;whiteSpace=wrap;size=20;arcSize=12;rotation=-180;fillColor=none;" parent="1" vertex="1">
          <mxGeometry x="169.37" y="800" width="70.63" height="20" as="geometry" />
        </mxCell>
        <mxCell id="dSz6lFGVtchdJnZMV3Gq-59" value="&lt;font style=&quot;font-size: 8px;&quot;&gt;Alt&lt;/font&gt;" style="text;html=1;align=center;verticalAlign=middle;whiteSpace=wrap;rounded=0;" parent="1" vertex="1">
          <mxGeometry x="160" y="795" width="60" height="30" as="geometry" />
        </mxCell>
        <mxCell id="dSz6lFGVtchdJnZMV3Gq-61" value="&lt;font style=&quot;font-size: 8px;&quot;&gt;return false&lt;/font&gt;" style="text;html=1;align=center;verticalAlign=middle;whiteSpace=wrap;rounded=0;" parent="1" vertex="1">
          <mxGeometry x="600" y="790" width="60" height="30" as="geometry" />
        </mxCell>
        <mxCell id="dSz6lFGVtchdJnZMV3Gq-62" value="&lt;font style=&quot;font-size: 8px;&quot;&gt;falseInfo_screen&lt;/font&gt;" style="rounded=0;whiteSpace=wrap;html=1;" parent="1" vertex="1">
          <mxGeometry x="630" y="440" width="100" height="30" as="geometry" />
        </mxCell>
        <mxCell id="dSz6lFGVtchdJnZMV3Gq-64" value="" style="rounded=0;whiteSpace=wrap;html=1;rotation=90;fillColor=#dae8fc;strokeColor=#6c8ebf;" parent="1" vertex="1">
          <mxGeometry x="671.44" y="828.56" width="20" height="6.5" as="geometry" />
        </mxCell>
        <mxCell id="dSz6lFGVtchdJnZMV3Gq-65" value="" style="endArrow=classic;html=1;rounded=0;" parent="1" edge="1">
          <mxGeometry width="50" height="50" relative="1" as="geometry">
            <mxPoint x="580" y="830" as="sourcePoint" />
            <mxPoint x="670" y="830" as="targetPoint" />
          </mxGeometry>
        </mxCell>
        <mxCell id="dSz6lFGVtchdJnZMV3Gq-66" value="&lt;font style=&quot;font-size: 8px;&quot;&gt;display_false()&lt;/font&gt;" style="edgeLabel;html=1;align=center;verticalAlign=middle;resizable=0;points=[];" parent="dSz6lFGVtchdJnZMV3Gq-65" vertex="1" connectable="0">
          <mxGeometry x="-0.402" y="1" relative="1" as="geometry">
            <mxPoint x="13" as="offset" />
          </mxGeometry>
        </mxCell>
        <mxCell id="dSz6lFGVtchdJnZMV3Gq-67" value="" style="endArrow=open;dashed=1;html=1;rounded=0;endFill=0;" parent="1" edge="1">
          <mxGeometry width="50" height="50" relative="1" as="geometry">
            <mxPoint x="670" y="850" as="sourcePoint" />
            <mxPoint x="580" y="850" as="targetPoint" />
          </mxGeometry>
        </mxCell>
        <mxCell id="dSz6lFGVtchdJnZMV3Gq-68" value="&lt;font size=&quot;1&quot;&gt;return&lt;/font&gt;" style="edgeLabel;html=1;align=center;verticalAlign=middle;resizable=0;points=[];" parent="dSz6lFGVtchdJnZMV3Gq-67" vertex="1" connectable="0">
          <mxGeometry x="0.1798" y="3" relative="1" as="geometry">
            <mxPoint as="offset" />
          </mxGeometry>
        </mxCell>
        <mxCell id="dSz6lFGVtchdJnZMV3Gq-69" value="" style="endArrow=open;dashed=1;html=1;rounded=0;endFill=0;" parent="1" edge="1">
          <mxGeometry width="50" height="50" relative="1" as="geometry">
            <mxPoint x="890" y="890" as="sourcePoint" />
            <mxPoint x="580" y="890" as="targetPoint" />
          </mxGeometry>
        </mxCell>
        <mxCell id="dSz6lFGVtchdJnZMV3Gq-70" value="&lt;font style=&quot;font-size: 8px;&quot;&gt;return true&lt;/font&gt;" style="edgeLabel;html=1;align=center;verticalAlign=middle;resizable=0;points=[];" parent="dSz6lFGVtchdJnZMV3Gq-69" vertex="1" connectable="0">
          <mxGeometry x="0.1192" y="2" relative="1" as="geometry">
            <mxPoint as="offset" />
          </mxGeometry>
        </mxCell>
        <mxCell id="dSz6lFGVtchdJnZMV3Gq-72" value="" style="endArrow=classic;html=1;rounded=0;" parent="1" edge="1">
          <mxGeometry width="50" height="50" relative="1" as="geometry">
            <mxPoint x="580" y="910" as="sourcePoint" />
            <mxPoint x="890" y="910" as="targetPoint" />
          </mxGeometry>
        </mxCell>
        <mxCell id="dSz6lFGVtchdJnZMV3Gq-73" value="&lt;font style=&quot;font-size: 8px;&quot;&gt;register_card()&lt;/font&gt;" style="edgeLabel;html=1;align=center;verticalAlign=middle;resizable=0;points=[];" parent="dSz6lFGVtchdJnZMV3Gq-72" vertex="1" connectable="0">
          <mxGeometry x="-0.5013" y="-2" relative="1" as="geometry">
            <mxPoint as="offset" />
          </mxGeometry>
        </mxCell>
        <mxCell id="dSz6lFGVtchdJnZMV3Gq-75" style="edgeStyle=orthogonalEdgeStyle;rounded=0;orthogonalLoop=1;jettySize=auto;html=1;exitX=0.5;exitY=1;exitDx=0;exitDy=0;dashed=1;endArrow=none;startFill=0;" parent="1" source="dSz6lFGVtchdJnZMV3Gq-74" edge="1">
          <mxGeometry relative="1" as="geometry">
            <mxPoint x="789.6363636363635" y="960" as="targetPoint" />
          </mxGeometry>
        </mxCell>
        <mxCell id="dSz6lFGVtchdJnZMV3Gq-74" value="&lt;font style=&quot;font-size: 8px;&quot;&gt;falseInfo_screen&lt;/font&gt;" style="rounded=0;whiteSpace=wrap;html=1;" parent="1" vertex="1">
          <mxGeometry x="740" y="440" width="100" height="30" as="geometry" />
        </mxCell>
        <mxCell id="dSz6lFGVtchdJnZMV3Gq-76" value="" style="endArrow=classic;html=1;rounded=0;" parent="1" edge="1">
          <mxGeometry width="50" height="50" relative="1" as="geometry">
            <mxPoint x="270" y="940" as="sourcePoint" />
            <mxPoint x="780" y="940" as="targetPoint" />
          </mxGeometry>
        </mxCell>
        <mxCell id="dSz6lFGVtchdJnZMV3Gq-77" value="&lt;font style=&quot;font-size: 8px;&quot;&gt;display_complScreen()&lt;/font&gt;" style="edgeLabel;html=1;align=center;verticalAlign=middle;resizable=0;points=[];" parent="dSz6lFGVtchdJnZMV3Gq-76" vertex="1" connectable="0">
          <mxGeometry x="-0.4577" y="-3" relative="1" as="geometry">
            <mxPoint as="offset" />
          </mxGeometry>
        </mxCell>
        <mxCell id="dSz6lFGVtchdJnZMV3Gq-78" value="" style="endArrow=classic;html=1;rounded=0;dashed=1;" parent="1" edge="1">
          <mxGeometry width="50" height="50" relative="1" as="geometry">
            <mxPoint x="560" y="920" as="sourcePoint" />
            <mxPoint x="270" y="920" as="targetPoint" />
          </mxGeometry>
        </mxCell>
        <mxCell id="dSz6lFGVtchdJnZMV3Gq-79" value="&lt;font style=&quot;font-size: 8px;&quot;&gt;return results&lt;/font&gt;" style="edgeLabel;html=1;align=center;verticalAlign=middle;resizable=0;points=[];" parent="dSz6lFGVtchdJnZMV3Gq-78" vertex="1" connectable="0">
          <mxGeometry x="0.4085" y="4" relative="1" as="geometry">
            <mxPoint as="offset" />
          </mxGeometry>
        </mxCell>
        <mxCell id="dSz6lFGVtchdJnZMV3Gq-80" value="" style="rounded=0;whiteSpace=wrap;html=1;rotation=90;fillColor=#dae8fc;strokeColor=#6c8ebf;" parent="1" vertex="1">
          <mxGeometry x="781.29" y="940.16" width="18.55" height="6.5" as="geometry" />
        </mxCell>
        <mxCell id="gZ4OyTbjbwFTQt0HmbJi-1" value="" style="shape=umlActor;verticalLabelPosition=bottom;verticalAlign=top;html=1;outlineConnect=0;" vertex="1" parent="1">
          <mxGeometry x="10" y="980" width="30" height="60" as="geometry" />
        </mxCell>
        <mxCell id="gZ4OyTbjbwFTQt0HmbJi-2" value="" style="endArrow=none;dashed=1;html=1;rounded=0;endSize=0;startSize=0;jumpSize=0;" edge="1" parent="1" target="gZ4OyTbjbwFTQt0HmbJi-1">
          <mxGeometry width="50" height="50" relative="1" as="geometry">
            <mxPoint x="25" y="1720" as="sourcePoint" />
            <mxPoint x="15.283018867924511" y="1140" as="targetPoint" />
          </mxGeometry>
        </mxCell>
        <mxCell id="gZ4OyTbjbwFTQt0HmbJi-3" value="&lt;div&gt;&lt;font style=&quot;font-size: 8px;&quot;&gt;starting_tab_screen&lt;/font&gt;&lt;/div&gt;" style="rounded=0;whiteSpace=wrap;html=1;" vertex="1" parent="1">
          <mxGeometry x="80" y="980" width="120" height="30" as="geometry" />
        </mxCell>
        <mxCell id="gZ4OyTbjbwFTQt0HmbJi-7" value="" style="edgeStyle=orthogonalEdgeStyle;rounded=0;orthogonalLoop=1;jettySize=auto;html=1;exitX=0.5;exitY=1;exitDx=0;exitDy=0;dashed=1;endArrow=none;endFill=0;startFill=0;" edge="1" parent="1">
          <mxGeometry relative="1" as="geometry">
            <mxPoint x="140" y="1720" as="targetPoint" />
            <mxPoint x="139.24" y="1010" as="sourcePoint" />
          </mxGeometry>
        </mxCell>
        <mxCell id="gZ4OyTbjbwFTQt0HmbJi-5" value="" style="rounded=0;whiteSpace=wrap;html=1;rotation=90;fillColor=#dae8fc;strokeColor=#6c8ebf;" vertex="1" parent="1">
          <mxGeometry x="132" y="1050" width="14.38" height="6.5" as="geometry" />
        </mxCell>
        <mxCell id="gZ4OyTbjbwFTQt0HmbJi-8" value="" style="endArrow=classic;html=1;rounded=0;" edge="1" parent="1">
          <mxGeometry width="50" height="50" relative="1" as="geometry">
            <mxPoint x="30" y="1050" as="sourcePoint" />
            <mxPoint x="130" y="1050" as="targetPoint" />
          </mxGeometry>
        </mxCell>
        <mxCell id="gZ4OyTbjbwFTQt0HmbJi-9" value="&lt;font style=&quot;font-size: 8px;&quot;&gt;select cafe/bar&lt;/font&gt;" style="edgeLabel;html=1;align=center;verticalAlign=middle;resizable=0;points=[];" vertex="1" connectable="0" parent="gZ4OyTbjbwFTQt0HmbJi-8">
          <mxGeometry x="-0.1541" relative="1" as="geometry">
            <mxPoint as="offset" />
          </mxGeometry>
        </mxCell>
        <mxCell id="gZ4OyTbjbwFTQt0HmbJi-11" value="&lt;div&gt;&lt;font size=&quot;1&quot;&gt;manage_cafeBar&lt;/font&gt;&lt;/div&gt;" style="rounded=0;whiteSpace=wrap;html=1;" vertex="1" parent="1">
          <mxGeometry x="210" y="980" width="90" height="30" as="geometry" />
        </mxCell>
        <mxCell id="gZ4OyTbjbwFTQt0HmbJi-15" value="" style="edgeStyle=orthogonalEdgeStyle;rounded=0;orthogonalLoop=1;jettySize=auto;html=1;exitX=0.5;exitY=1;exitDx=0;exitDy=0;dashed=1;endArrow=none;startFill=0;" edge="1" parent="1">
          <mxGeometry relative="1" as="geometry">
            <mxPoint x="255" y="1720" as="targetPoint" />
            <mxPoint x="255" y="1010.0000000000002" as="sourcePoint" />
          </mxGeometry>
        </mxCell>
        <mxCell id="gZ4OyTbjbwFTQt0HmbJi-13" value="" style="rounded=0;whiteSpace=wrap;html=1;rotation=90;fillColor=#dae8fc;strokeColor=#6c8ebf;" vertex="1" parent="1">
          <mxGeometry x="186.96" y="1120.86" width="136.09" height="6.5" as="geometry" />
        </mxCell>
        <mxCell id="gZ4OyTbjbwFTQt0HmbJi-16" value="" style="endArrow=classic;html=1;rounded=0;" edge="1" parent="1">
          <mxGeometry width="50" height="50" relative="1" as="geometry">
            <mxPoint x="150" y="1060" as="sourcePoint" />
            <mxPoint x="250" y="1060" as="targetPoint" />
          </mxGeometry>
        </mxCell>
        <mxCell id="gZ4OyTbjbwFTQt0HmbJi-18" value="&lt;font style=&quot;font-size: 8px;&quot;&gt;load_cafeBar_screen()&lt;/font&gt;" style="edgeLabel;html=1;align=center;verticalAlign=middle;resizable=0;points=[];" vertex="1" connectable="0" parent="gZ4OyTbjbwFTQt0HmbJi-16">
          <mxGeometry x="-0.1541" y="-1" relative="1" as="geometry">
            <mxPoint as="offset" />
          </mxGeometry>
        </mxCell>
        <mxCell id="gZ4OyTbjbwFTQt0HmbJi-19" style="edgeStyle=orthogonalEdgeStyle;rounded=0;orthogonalLoop=1;jettySize=auto;html=1;exitX=0.5;exitY=1;exitDx=0;exitDy=0;endArrow=none;startFill=0;dashed=1;" edge="1" parent="1" source="gZ4OyTbjbwFTQt0HmbJi-20">
          <mxGeometry relative="1" as="geometry">
            <mxPoint x="980" y="1710" as="targetPoint" />
          </mxGeometry>
        </mxCell>
        <mxCell id="gZ4OyTbjbwFTQt0HmbJi-20" value="&lt;font style=&quot;font-size: 8px;&quot;&gt;DBmanager&lt;/font&gt;" style="rounded=0;whiteSpace=wrap;html=1;" vertex="1" parent="1">
          <mxGeometry x="930" y="980" width="100" height="30" as="geometry" />
        </mxCell>
        <mxCell id="gZ4OyTbjbwFTQt0HmbJi-21" value="" style="rounded=0;whiteSpace=wrap;html=1;rotation=90;fillColor=#dae8fc;strokeColor=#6c8ebf;" vertex="1" parent="1">
          <mxGeometry x="685.29" y="1356.35" width="590.95" height="6.5" as="geometry" />
        </mxCell>
        <mxCell id="gZ4OyTbjbwFTQt0HmbJi-22" value="" style="endArrow=classic;html=1;rounded=0;" edge="1" parent="1">
          <mxGeometry width="50" height="50" relative="1" as="geometry">
            <mxPoint x="370" y="1090" as="sourcePoint" />
            <mxPoint x="970" y="1090" as="targetPoint" />
          </mxGeometry>
        </mxCell>
        <mxCell id="gZ4OyTbjbwFTQt0HmbJi-23" value="&lt;font style=&quot;font-size: 8px;&quot;&gt;load_cafeBar()&lt;/font&gt;" style="edgeLabel;html=1;align=center;verticalAlign=middle;resizable=0;points=[];" vertex="1" connectable="0" parent="gZ4OyTbjbwFTQt0HmbJi-22">
          <mxGeometry x="-0.8279" y="-1" relative="1" as="geometry">
            <mxPoint as="offset" />
          </mxGeometry>
        </mxCell>
        <mxCell id="gZ4OyTbjbwFTQt0HmbJi-25" value="" style="endArrow=open;dashed=1;html=1;rounded=0;endFill=0;" edge="1" parent="1">
          <mxGeometry width="50" height="50" relative="1" as="geometry">
            <mxPoint x="970" y="1110" as="sourcePoint" />
            <mxPoint x="370" y="1110" as="targetPoint" />
          </mxGeometry>
        </mxCell>
        <mxCell id="gZ4OyTbjbwFTQt0HmbJi-26" value="&lt;font style=&quot;font-size: 8px;&quot;&gt;return results&lt;/font&gt;" style="edgeLabel;html=1;align=center;verticalAlign=middle;resizable=0;points=[];" vertex="1" connectable="0" parent="gZ4OyTbjbwFTQt0HmbJi-25">
          <mxGeometry x="0.8341" y="2" relative="1" as="geometry">
            <mxPoint as="offset" />
          </mxGeometry>
        </mxCell>
        <mxCell id="gZ4OyTbjbwFTQt0HmbJi-27" value="&lt;div&gt;&lt;font size=&quot;1&quot;&gt;cafeBar_starting_screen&lt;/font&gt;&lt;/div&gt;" style="rounded=0;whiteSpace=wrap;html=1;" vertex="1" parent="1">
          <mxGeometry x="310" y="980" width="110" height="30" as="geometry" />
        </mxCell>
        <mxCell id="gZ4OyTbjbwFTQt0HmbJi-30" value="" style="endArrow=classic;html=1;rounded=0;" edge="1" parent="1">
          <mxGeometry width="50" height="50" relative="1" as="geometry">
            <mxPoint x="260" y="1070" as="sourcePoint" />
            <mxPoint x="360" y="1070" as="targetPoint" />
          </mxGeometry>
        </mxCell>
        <mxCell id="gZ4OyTbjbwFTQt0HmbJi-33" value="&lt;font style=&quot;font-size: 8px;&quot;&gt;display_startingScreen()&lt;/font&gt;" style="edgeLabel;html=1;align=center;verticalAlign=middle;resizable=0;points=[];" vertex="1" connectable="0" parent="gZ4OyTbjbwFTQt0HmbJi-30">
          <mxGeometry x="-0.3837" y="1" relative="1" as="geometry">
            <mxPoint x="19" as="offset" />
          </mxGeometry>
        </mxCell>
        <mxCell id="gZ4OyTbjbwFTQt0HmbJi-32" value="" style="endArrow=none;dashed=1;html=1;rounded=0;exitX=0.5;exitY=1;exitDx=0;exitDy=0;" edge="1" parent="1">
          <mxGeometry width="50" height="50" relative="1" as="geometry">
            <mxPoint x="365" y="1010.0000000000002" as="sourcePoint" />
            <mxPoint x="365" y="1720" as="targetPoint" />
          </mxGeometry>
        </mxCell>
        <mxCell id="gZ4OyTbjbwFTQt0HmbJi-31" value="" style="rounded=0;whiteSpace=wrap;html=1;rotation=90;fillColor=#dae8fc;strokeColor=#6c8ebf;" vertex="1" parent="1">
          <mxGeometry x="141.74" y="1282.17" width="446.52" height="6.5" as="geometry" />
        </mxCell>
        <mxCell id="gZ4OyTbjbwFTQt0HmbJi-34" value="" style="endArrow=classic;html=1;rounded=0;" edge="1" parent="1">
          <mxGeometry width="50" height="50" relative="1" as="geometry">
            <mxPoint x="30" y="1150" as="sourcePoint" />
            <mxPoint x="360" y="1150" as="targetPoint" />
          </mxGeometry>
        </mxCell>
        <mxCell id="gZ4OyTbjbwFTQt0HmbJi-35" value="&lt;font style=&quot;font-size: 8px;&quot;&gt;select filters&lt;/font&gt;" style="edgeLabel;html=1;align=center;verticalAlign=middle;resizable=0;points=[];" vertex="1" connectable="0" parent="gZ4OyTbjbwFTQt0HmbJi-34">
          <mxGeometry x="-0.3259" y="-1" relative="1" as="geometry">
            <mxPoint as="offset" />
          </mxGeometry>
        </mxCell>
        <mxCell id="gZ4OyTbjbwFTQt0HmbJi-36" value="" style="endArrow=open;html=1;rounded=0;dashed=1;endFill=0;" edge="1" parent="1">
          <mxGeometry width="50" height="50" relative="1" as="geometry">
            <mxPoint x="360" y="1160" as="sourcePoint" />
            <mxPoint x="258.51851851851853" y="1160" as="targetPoint" />
          </mxGeometry>
        </mxCell>
        <mxCell id="gZ4OyTbjbwFTQt0HmbJi-37" value="&lt;font style=&quot;font-size: 8px;&quot;&gt;return selection&lt;/font&gt;" style="edgeLabel;html=1;align=center;verticalAlign=middle;resizable=0;points=[];" vertex="1" connectable="0" parent="gZ4OyTbjbwFTQt0HmbJi-36">
          <mxGeometry x="0.0423" y="3" relative="1" as="geometry">
            <mxPoint as="offset" />
          </mxGeometry>
        </mxCell>
        <mxCell id="gZ4OyTbjbwFTQt0HmbJi-38" value="&lt;div&gt;&lt;font size=&quot;1&quot;&gt;filters_screen&lt;/font&gt;&lt;/div&gt;" style="rounded=0;whiteSpace=wrap;html=1;" vertex="1" parent="1">
          <mxGeometry x="430" y="980" width="80" height="30" as="geometry" />
        </mxCell>
        <mxCell id="gZ4OyTbjbwFTQt0HmbJi-42" value="" style="endArrow=classic;html=1;rounded=0;" edge="1" parent="1">
          <mxGeometry width="50" height="50" relative="1" as="geometry">
            <mxPoint x="260" y="1180" as="sourcePoint" />
            <mxPoint x="460" y="1180" as="targetPoint" />
          </mxGeometry>
        </mxCell>
        <mxCell id="gZ4OyTbjbwFTQt0HmbJi-45" value="&lt;font style=&quot;font-size: 8px;&quot;&gt;display_filterScreen()&lt;/font&gt;" style="edgeLabel;html=1;align=center;verticalAlign=middle;resizable=0;points=[];" vertex="1" connectable="0" parent="gZ4OyTbjbwFTQt0HmbJi-42">
          <mxGeometry x="-0.6622" relative="1" as="geometry">
            <mxPoint x="16" as="offset" />
          </mxGeometry>
        </mxCell>
        <mxCell id="gZ4OyTbjbwFTQt0HmbJi-44" value="" style="edgeStyle=orthogonalEdgeStyle;rounded=0;orthogonalLoop=1;jettySize=auto;html=1;exitX=0.5;exitY=1;exitDx=0;exitDy=0;dashed=1;endArrow=none;startFill=0;" edge="1" parent="1" source="gZ4OyTbjbwFTQt0HmbJi-38">
          <mxGeometry relative="1" as="geometry">
            <mxPoint x="470" y="1720" as="targetPoint" />
            <mxPoint x="470" y="1010" as="sourcePoint" />
          </mxGeometry>
        </mxCell>
        <mxCell id="gZ4OyTbjbwFTQt0HmbJi-40" value="" style="rounded=0;whiteSpace=wrap;html=1;rotation=90;fillColor=#dae8fc;strokeColor=#6c8ebf;" vertex="1" parent="1">
          <mxGeometry x="382.23" y="1256.68" width="175.55" height="6.5" as="geometry" />
        </mxCell>
        <mxCell id="gZ4OyTbjbwFTQt0HmbJi-49" value="" style="group" vertex="1" connectable="0" parent="1">
          <mxGeometry x="10" y="1120" width="1020" height="230" as="geometry" />
        </mxCell>
        <mxCell id="gZ4OyTbjbwFTQt0HmbJi-46" value="" style="rounded=0;whiteSpace=wrap;html=1;fillColor=none;" vertex="1" parent="gZ4OyTbjbwFTQt0HmbJi-49">
          <mxGeometry x="14.278201891330662" y="13.529411764705882" width="1005.7217981086694" height="216.47058823529412" as="geometry" />
        </mxCell>
        <mxCell id="gZ4OyTbjbwFTQt0HmbJi-47" value="" style="verticalLabelPosition=bottom;verticalAlign=top;html=1;shape=card;whiteSpace=wrap;size=20;arcSize=12;rotation=-180;fillColor=none;" vertex="1" parent="gZ4OyTbjbwFTQt0HmbJi-49">
          <mxGeometry x="14.280000000000001" y="13.53" width="107.63217391304347" height="17.65" as="geometry" />
        </mxCell>
        <mxCell id="gZ4OyTbjbwFTQt0HmbJi-48" value="&lt;font style=&quot;font-size: 8px;&quot;&gt;Alt&lt;/font&gt;" style="text;html=1;align=center;verticalAlign=middle;whiteSpace=wrap;rounded=0;" vertex="1" parent="gZ4OyTbjbwFTQt0HmbJi-49">
          <mxGeometry y="-18.23" width="91.4292543735154" height="81.17647058823529" as="geometry" />
        </mxCell>
        <mxCell id="gZ4OyTbjbwFTQt0HmbJi-50" value="" style="endArrow=classic;html=1;rounded=0;" edge="1" parent="1">
          <mxGeometry width="50" height="50" relative="1" as="geometry">
            <mxPoint x="30" y="1200" as="sourcePoint" />
            <mxPoint x="461.48148148148147" y="1200" as="targetPoint" />
          </mxGeometry>
        </mxCell>
        <mxCell id="gZ4OyTbjbwFTQt0HmbJi-51" value="&lt;font style=&quot;font-size: 8px;&quot;&gt;choose filters&lt;/font&gt;" style="edgeLabel;html=1;align=center;verticalAlign=middle;resizable=0;points=[];" vertex="1" connectable="0" parent="gZ4OyTbjbwFTQt0HmbJi-50">
          <mxGeometry x="-0.3748" y="1" relative="1" as="geometry">
            <mxPoint as="offset" />
          </mxGeometry>
        </mxCell>
        <mxCell id="gZ4OyTbjbwFTQt0HmbJi-52" value="" style="endArrow=classic;html=1;rounded=0;" edge="1" parent="1">
          <mxGeometry width="50" height="50" relative="1" as="geometry">
            <mxPoint x="480" y="1210" as="sourcePoint" />
            <mxPoint x="970" y="1210" as="targetPoint" />
          </mxGeometry>
        </mxCell>
        <mxCell id="gZ4OyTbjbwFTQt0HmbJi-53" value="&lt;font style=&quot;font-size: 8px;&quot;&gt;search_cafeBar()&lt;/font&gt;" style="edgeLabel;html=1;align=center;verticalAlign=middle;resizable=0;points=[];" vertex="1" connectable="0" parent="gZ4OyTbjbwFTQt0HmbJi-52">
          <mxGeometry x="-0.2526" relative="1" as="geometry">
            <mxPoint as="offset" />
          </mxGeometry>
        </mxCell>
        <mxCell id="gZ4OyTbjbwFTQt0HmbJi-55" value="" style="endArrow=open;dashed=1;html=1;rounded=0;endFill=0;" edge="1" parent="1">
          <mxGeometry width="50" height="50" relative="1" as="geometry">
            <mxPoint x="970" y="1230" as="sourcePoint" />
            <mxPoint x="480" y="1230" as="targetPoint" />
          </mxGeometry>
        </mxCell>
        <mxCell id="gZ4OyTbjbwFTQt0HmbJi-56" value="&lt;font style=&quot;font-size: 8px;&quot;&gt;rerturn false&lt;/font&gt;" style="edgeLabel;html=1;align=center;verticalAlign=middle;resizable=0;points=[];" vertex="1" connectable="0" parent="gZ4OyTbjbwFTQt0HmbJi-55">
          <mxGeometry x="0.3066" y="2" relative="1" as="geometry">
            <mxPoint as="offset" />
          </mxGeometry>
        </mxCell>
        <mxCell id="gZ4OyTbjbwFTQt0HmbJi-58" value="&lt;div&gt;&lt;font size=&quot;1&quot;&gt;no_cafeBar_screen&lt;/font&gt;&lt;/div&gt;" style="rounded=0;whiteSpace=wrap;html=1;" vertex="1" parent="1">
          <mxGeometry x="520" y="980" width="90" height="30" as="geometry" />
        </mxCell>
        <mxCell id="gZ4OyTbjbwFTQt0HmbJi-60" value="" style="endArrow=classic;html=1;rounded=0;" edge="1" parent="1">
          <mxGeometry width="50" height="50" relative="1" as="geometry">
            <mxPoint x="480" y="1250" as="sourcePoint" />
            <mxPoint x="560" y="1250" as="targetPoint" />
          </mxGeometry>
        </mxCell>
        <mxCell id="gZ4OyTbjbwFTQt0HmbJi-62" value="&lt;font style=&quot;font-size: 8px;&quot;&gt;false_msg()&lt;/font&gt;" style="edgeLabel;html=1;align=center;verticalAlign=middle;resizable=0;points=[];" vertex="1" connectable="0" parent="gZ4OyTbjbwFTQt0HmbJi-60">
          <mxGeometry x="-0.2111" y="-3" relative="1" as="geometry">
            <mxPoint as="offset" />
          </mxGeometry>
        </mxCell>
        <mxCell id="gZ4OyTbjbwFTQt0HmbJi-61" value="" style="rounded=0;whiteSpace=wrap;html=1;rotation=90;fillColor=#dae8fc;strokeColor=#6c8ebf;" vertex="1" parent="1">
          <mxGeometry x="537.09" y="1264.75" width="56" height="6.5" as="geometry" />
        </mxCell>
        <mxCell id="gZ4OyTbjbwFTQt0HmbJi-63" value="" style="endArrow=classic;html=1;rounded=0;" edge="1" parent="1">
          <mxGeometry width="50" height="50" relative="1" as="geometry">
            <mxPoint x="30" y="1270" as="sourcePoint" />
            <mxPoint x="560" y="1270" as="targetPoint" />
          </mxGeometry>
        </mxCell>
        <mxCell id="gZ4OyTbjbwFTQt0HmbJi-64" value="&lt;font style=&quot;font-size: 8px;&quot;&gt;OK&lt;/font&gt;" style="edgeLabel;html=1;align=center;verticalAlign=middle;resizable=0;points=[];" vertex="1" connectable="0" parent="gZ4OyTbjbwFTQt0HmbJi-63">
          <mxGeometry x="-0.7537" y="2" relative="1" as="geometry">
            <mxPoint as="offset" />
          </mxGeometry>
        </mxCell>
        <mxCell id="gZ4OyTbjbwFTQt0HmbJi-65" value="" style="endArrow=open;dashed=1;html=1;rounded=0;endFill=0;" edge="1" parent="1">
          <mxGeometry width="50" height="50" relative="1" as="geometry">
            <mxPoint x="560" y="1290" as="sourcePoint" />
            <mxPoint x="480" y="1290" as="targetPoint" />
          </mxGeometry>
        </mxCell>
        <mxCell id="gZ4OyTbjbwFTQt0HmbJi-66" value="&lt;font style=&quot;font-size: 8px;&quot;&gt;return&lt;/font&gt;" style="edgeLabel;html=1;align=center;verticalAlign=middle;resizable=0;points=[];" vertex="1" connectable="0" parent="gZ4OyTbjbwFTQt0HmbJi-65">
          <mxGeometry x="0.2481" y="2" relative="1" as="geometry">
            <mxPoint as="offset" />
          </mxGeometry>
        </mxCell>
        <mxCell id="gZ4OyTbjbwFTQt0HmbJi-67" value="" style="group" vertex="1" connectable="0" parent="1">
          <mxGeometry x="60" y="1220" width="930" height="80" as="geometry" />
        </mxCell>
        <mxCell id="gZ4OyTbjbwFTQt0HmbJi-68" value="" style="rounded=0;whiteSpace=wrap;html=1;fillColor=none;" vertex="1" parent="gZ4OyTbjbwFTQt0HmbJi-67">
          <mxGeometry x="10.941176470588236" y="3.1377777777777776" width="919.0588235294118" height="76.86222222222221" as="geometry" />
        </mxCell>
        <mxCell id="gZ4OyTbjbwFTQt0HmbJi-69" value="" style="verticalLabelPosition=bottom;verticalAlign=top;html=1;shape=card;whiteSpace=wrap;size=20;arcSize=12;rotation=-180;fillColor=none;" vertex="1" parent="gZ4OyTbjbwFTQt0HmbJi-67">
          <mxGeometry x="13.018360547977958" y="3.137254901960784" width="98.13092908257019" height="12.549019607843135" as="geometry" />
        </mxCell>
        <mxCell id="gZ4OyTbjbwFTQt0HmbJi-70" value="&lt;font style=&quot;font-size: 8px;&quot;&gt;Alt&lt;/font&gt;" style="text;html=1;align=center;verticalAlign=middle;whiteSpace=wrap;rounded=0;" vertex="1" parent="gZ4OyTbjbwFTQt0HmbJi-67">
          <mxGeometry width="83.36196722291112" height="18.823529411764703" as="geometry" />
        </mxCell>
        <mxCell id="gZ4OyTbjbwFTQt0HmbJi-71" value="" style="endArrow=open;dashed=1;html=1;rounded=0;endFill=0;" edge="1" parent="1">
          <mxGeometry width="50" height="50" relative="1" as="geometry">
            <mxPoint x="970" y="1320" as="sourcePoint" />
            <mxPoint x="479.25925925925924" y="1320" as="targetPoint" />
          </mxGeometry>
        </mxCell>
        <mxCell id="gZ4OyTbjbwFTQt0HmbJi-72" value="&lt;font style=&quot;font-size: 8px;&quot;&gt;return results&lt;/font&gt;" style="edgeLabel;html=1;align=center;verticalAlign=middle;resizable=0;points=[];" vertex="1" connectable="0" parent="gZ4OyTbjbwFTQt0HmbJi-71">
          <mxGeometry x="0.3993" y="1" relative="1" as="geometry">
            <mxPoint as="offset" />
          </mxGeometry>
        </mxCell>
        <mxCell id="gZ4OyTbjbwFTQt0HmbJi-74" value="&lt;div&gt;&lt;font size=&quot;1&quot;&gt;cafeBar_screen&lt;/font&gt;&lt;/div&gt;" style="rounded=0;whiteSpace=wrap;html=1;" vertex="1" parent="1">
          <mxGeometry x="620" y="980" width="90" height="30" as="geometry" />
        </mxCell>
        <mxCell id="gZ4OyTbjbwFTQt0HmbJi-76" value="" style="rounded=0;whiteSpace=wrap;html=1;rotation=90;fillColor=#dae8fc;strokeColor=#6c8ebf;" vertex="1" parent="1">
          <mxGeometry x="655.49" y="1337.45" width="19.03" height="6.5" as="geometry" />
        </mxCell>
        <mxCell id="gZ4OyTbjbwFTQt0HmbJi-78" value="" style="endArrow=classic;html=1;rounded=0;" edge="1" parent="1">
          <mxGeometry width="50" height="50" relative="1" as="geometry">
            <mxPoint x="480" y="1340" as="sourcePoint" />
            <mxPoint x="660" y="1340" as="targetPoint" />
          </mxGeometry>
        </mxCell>
        <mxCell id="gZ4OyTbjbwFTQt0HmbJi-79" value="&lt;font style=&quot;font-size: 8px;&quot;&gt;show_cafeBar()&lt;/font&gt;" style="edgeLabel;html=1;align=center;verticalAlign=middle;resizable=0;points=[];" vertex="1" connectable="0" parent="gZ4OyTbjbwFTQt0HmbJi-78">
          <mxGeometry x="-0.5922" relative="1" as="geometry">
            <mxPoint as="offset" />
          </mxGeometry>
        </mxCell>
        <mxCell id="gZ4OyTbjbwFTQt0HmbJi-81" value="" style="endArrow=classic;html=1;rounded=0;" edge="1" parent="1">
          <mxGeometry width="50" height="50" relative="1" as="geometry">
            <mxPoint x="30" y="1360" as="sourcePoint" />
            <mxPoint x="360" y="1360" as="targetPoint" />
          </mxGeometry>
        </mxCell>
        <mxCell id="gZ4OyTbjbwFTQt0HmbJi-82" value="&lt;font style=&quot;font-size: 8px;&quot;&gt;search name&lt;/font&gt;" style="edgeLabel;html=1;align=center;verticalAlign=middle;resizable=0;points=[];" vertex="1" connectable="0" parent="gZ4OyTbjbwFTQt0HmbJi-81">
          <mxGeometry x="-0.5419" relative="1" as="geometry">
            <mxPoint as="offset" />
          </mxGeometry>
        </mxCell>
        <mxCell id="gZ4OyTbjbwFTQt0HmbJi-83" value="" style="endArrow=classic;html=1;rounded=0;fontStyle=4" edge="1" parent="1">
          <mxGeometry width="50" height="50" relative="1" as="geometry">
            <mxPoint x="370" y="1370" as="sourcePoint" />
            <mxPoint x="970" y="1370" as="targetPoint" />
          </mxGeometry>
        </mxCell>
        <mxCell id="gZ4OyTbjbwFTQt0HmbJi-84" value="&lt;font style=&quot;font-size: 8px;&quot;&gt;load_cafeBar()&lt;/font&gt;" style="edgeLabel;html=1;align=center;verticalAlign=middle;resizable=0;points=[];" vertex="1" connectable="0" parent="gZ4OyTbjbwFTQt0HmbJi-83">
          <mxGeometry x="-0.8523" y="-1" relative="1" as="geometry">
            <mxPoint as="offset" />
          </mxGeometry>
        </mxCell>
        <mxCell id="gZ4OyTbjbwFTQt0HmbJi-85" value="" style="endArrow=open;dashed=1;html=1;rounded=0;endFill=0;" edge="1" parent="1">
          <mxGeometry width="50" height="50" relative="1" as="geometry">
            <mxPoint x="970" y="1400" as="sourcePoint" />
            <mxPoint x="370" y="1400" as="targetPoint" />
          </mxGeometry>
        </mxCell>
        <mxCell id="gZ4OyTbjbwFTQt0HmbJi-86" value="&lt;font style=&quot;font-size: 8px;&quot;&gt;return false&lt;/font&gt;" style="edgeLabel;html=1;align=center;verticalAlign=middle;resizable=0;points=[];" vertex="1" connectable="0" parent="gZ4OyTbjbwFTQt0HmbJi-85">
          <mxGeometry x="0.7925" relative="1" as="geometry">
            <mxPoint as="offset" />
          </mxGeometry>
        </mxCell>
        <mxCell id="gZ4OyTbjbwFTQt0HmbJi-87" value="" style="endArrow=classic;html=1;rounded=0;" edge="1" parent="1">
          <mxGeometry width="50" height="50" relative="1" as="geometry">
            <mxPoint x="370" y="1420" as="sourcePoint" />
            <mxPoint x="560" y="1420" as="targetPoint" />
          </mxGeometry>
        </mxCell>
        <mxCell id="gZ4OyTbjbwFTQt0HmbJi-88" value="&lt;font style=&quot;font-size: 8px;&quot;&gt;false_msg()&lt;/font&gt;" style="edgeLabel;html=1;align=center;verticalAlign=middle;resizable=0;points=[];" vertex="1" connectable="0" parent="gZ4OyTbjbwFTQt0HmbJi-87">
          <mxGeometry x="-0.4943" y="-3" relative="1" as="geometry">
            <mxPoint as="offset" />
          </mxGeometry>
        </mxCell>
        <mxCell id="gZ4OyTbjbwFTQt0HmbJi-89" value="" style="endArrow=classic;html=1;rounded=0;" edge="1" parent="1">
          <mxGeometry width="50" height="50" relative="1" as="geometry">
            <mxPoint x="30" y="1440" as="sourcePoint" />
            <mxPoint x="560" y="1440" as="targetPoint" />
          </mxGeometry>
        </mxCell>
        <mxCell id="gZ4OyTbjbwFTQt0HmbJi-90" value="&lt;font style=&quot;font-size: 8px;&quot;&gt;OK&lt;/font&gt;" style="edgeLabel;html=1;align=center;verticalAlign=middle;resizable=0;points=[];" vertex="1" connectable="0" parent="gZ4OyTbjbwFTQt0HmbJi-89">
          <mxGeometry x="-0.7537" y="2" relative="1" as="geometry">
            <mxPoint as="offset" />
          </mxGeometry>
        </mxCell>
        <mxCell id="gZ4OyTbjbwFTQt0HmbJi-92" value="" style="endArrow=open;dashed=1;html=1;rounded=0;endFill=0;" edge="1" parent="1">
          <mxGeometry width="50" height="50" relative="1" as="geometry">
            <mxPoint x="560" y="1460" as="sourcePoint" />
            <mxPoint x="370" y="1460" as="targetPoint" />
          </mxGeometry>
        </mxCell>
        <mxCell id="gZ4OyTbjbwFTQt0HmbJi-93" value="&lt;font style=&quot;font-size: 8px;&quot;&gt;return&lt;/font&gt;" style="edgeLabel;html=1;align=center;verticalAlign=middle;resizable=0;points=[];" vertex="1" connectable="0" parent="gZ4OyTbjbwFTQt0HmbJi-92">
          <mxGeometry x="0.5723" y="1" relative="1" as="geometry">
            <mxPoint as="offset" />
          </mxGeometry>
        </mxCell>
        <mxCell id="gZ4OyTbjbwFTQt0HmbJi-94" value="" style="group" vertex="1" connectable="0" parent="1">
          <mxGeometry x="10" y="1390" width="980" height="80" as="geometry" />
        </mxCell>
        <mxCell id="gZ4OyTbjbwFTQt0HmbJi-95" value="" style="rounded=0;whiteSpace=wrap;html=1;fillColor=none;" vertex="1" parent="gZ4OyTbjbwFTQt0HmbJi-94">
          <mxGeometry x="11.52941176470588" y="3.1377777777777776" width="968.470588235294" height="76.86222222222221" as="geometry" />
        </mxCell>
        <mxCell id="gZ4OyTbjbwFTQt0HmbJi-96" value="" style="verticalLabelPosition=bottom;verticalAlign=top;html=1;shape=card;whiteSpace=wrap;size=20;arcSize=12;rotation=-180;fillColor=none;" vertex="1" parent="gZ4OyTbjbwFTQt0HmbJi-94">
          <mxGeometry x="13.718272405396124" y="3.137254901960784" width="103.4067854848589" height="12.549019607843135" as="geometry" />
        </mxCell>
        <mxCell id="gZ4OyTbjbwFTQt0HmbJi-97" value="&lt;font style=&quot;font-size: 8px;&quot;&gt;Alt&lt;/font&gt;" style="text;html=1;align=center;verticalAlign=middle;whiteSpace=wrap;rounded=0;" vertex="1" parent="gZ4OyTbjbwFTQt0HmbJi-94">
          <mxGeometry width="87.84379341769127" height="18.823529411764703" as="geometry" />
        </mxCell>
        <mxCell id="gZ4OyTbjbwFTQt0HmbJi-98" value="" style="endArrow=open;dashed=1;html=1;rounded=0;endFill=0;" edge="1" parent="1">
          <mxGeometry width="50" height="50" relative="1" as="geometry">
            <mxPoint x="970" y="1480" as="sourcePoint" />
            <mxPoint x="370" y="1480" as="targetPoint" />
          </mxGeometry>
        </mxCell>
        <mxCell id="gZ4OyTbjbwFTQt0HmbJi-99" value="&lt;font style=&quot;font-size: 8px;&quot;&gt;return results&lt;/font&gt;" style="edgeLabel;html=1;align=center;verticalAlign=middle;resizable=0;points=[];" vertex="1" connectable="0" parent="gZ4OyTbjbwFTQt0HmbJi-98">
          <mxGeometry x="0.4962" y="3" relative="1" as="geometry">
            <mxPoint as="offset" />
          </mxGeometry>
        </mxCell>
        <mxCell id="gZ4OyTbjbwFTQt0HmbJi-100" value="" style="endArrow=classic;html=1;rounded=0;" edge="1" parent="1">
          <mxGeometry width="50" height="50" relative="1" as="geometry">
            <mxPoint x="370" y="1500" as="sourcePoint" />
            <mxPoint x="660" y="1500" as="targetPoint" />
          </mxGeometry>
        </mxCell>
        <mxCell id="gZ4OyTbjbwFTQt0HmbJi-101" value="&lt;font style=&quot;font-size: 8px;&quot;&gt;show_cafebar()&lt;/font&gt;" style="edgeLabel;html=1;align=center;verticalAlign=middle;resizable=0;points=[];" vertex="1" connectable="0" parent="gZ4OyTbjbwFTQt0HmbJi-100">
          <mxGeometry x="0.0107" relative="1" as="geometry">
            <mxPoint as="offset" />
          </mxGeometry>
        </mxCell>
        <mxCell id="gZ4OyTbjbwFTQt0HmbJi-102" value="" style="endArrow=classic;html=1;rounded=0;" edge="1" parent="1">
          <mxGeometry width="50" height="50" relative="1" as="geometry">
            <mxPoint x="30" y="1520" as="sourcePoint" />
            <mxPoint x="660" y="1520" as="targetPoint" />
          </mxGeometry>
        </mxCell>
        <mxCell id="gZ4OyTbjbwFTQt0HmbJi-103" value="&lt;font style=&quot;font-size: 8px;&quot;&gt;choose cafe/bar&lt;/font&gt;" style="edgeLabel;html=1;align=center;verticalAlign=middle;resizable=0;points=[];" vertex="1" connectable="0" parent="gZ4OyTbjbwFTQt0HmbJi-102">
          <mxGeometry x="-0.737" y="-2" relative="1" as="geometry">
            <mxPoint as="offset" />
          </mxGeometry>
        </mxCell>
        <mxCell id="gZ4OyTbjbwFTQt0HmbJi-104" value="" style="endArrow=classic;html=1;rounded=0;" edge="1" parent="1">
          <mxGeometry width="50" height="50" relative="1" as="geometry">
            <mxPoint x="770" y="1561" as="sourcePoint" />
            <mxPoint x="980" y="1560" as="targetPoint" />
          </mxGeometry>
        </mxCell>
        <mxCell id="gZ4OyTbjbwFTQt0HmbJi-105" value="&lt;font style=&quot;font-size: 8px;&quot;&gt;search_cafebar_info()&lt;/font&gt;" style="edgeLabel;html=1;align=center;verticalAlign=middle;resizable=0;points=[];" vertex="1" connectable="0" parent="gZ4OyTbjbwFTQt0HmbJi-104">
          <mxGeometry x="-0.7111" y="1" relative="1" as="geometry">
            <mxPoint x="40" as="offset" />
          </mxGeometry>
        </mxCell>
        <mxCell id="gZ4OyTbjbwFTQt0HmbJi-106" value="" style="endArrow=open;dashed=1;html=1;rounded=0;endFill=0;" edge="1" parent="1">
          <mxGeometry width="50" height="50" relative="1" as="geometry">
            <mxPoint x="980" y="1580" as="sourcePoint" />
            <mxPoint x="770" y="1580" as="targetPoint" />
          </mxGeometry>
        </mxCell>
        <mxCell id="gZ4OyTbjbwFTQt0HmbJi-111" value="&lt;font style=&quot;font-size: 8px;&quot;&gt;return results&lt;/font&gt;" style="edgeLabel;html=1;align=center;verticalAlign=middle;resizable=0;points=[];" vertex="1" connectable="0" parent="gZ4OyTbjbwFTQt0HmbJi-106">
          <mxGeometry x="0.4895" y="3" relative="1" as="geometry">
            <mxPoint x="9" as="offset" />
          </mxGeometry>
        </mxCell>
        <mxCell id="gZ4OyTbjbwFTQt0HmbJi-107" value="&lt;div&gt;&lt;font size=&quot;1&quot;&gt;cafeBar_info_screen&lt;/font&gt;&lt;/div&gt;" style="rounded=0;whiteSpace=wrap;html=1;" vertex="1" parent="1">
          <mxGeometry x="720" y="980" width="90" height="30" as="geometry" />
        </mxCell>
        <mxCell id="gZ4OyTbjbwFTQt0HmbJi-109" value="" style="endArrow=classic;html=1;rounded=0;" edge="1" parent="1">
          <mxGeometry width="50" height="50" relative="1" as="geometry">
            <mxPoint x="670" y="1540" as="sourcePoint" />
            <mxPoint x="760" y="1540" as="targetPoint" />
          </mxGeometry>
        </mxCell>
        <mxCell id="gZ4OyTbjbwFTQt0HmbJi-110" value="&lt;font style=&quot;font-size: 8px;&quot;&gt;display_infoScreen()&lt;/font&gt;" style="edgeLabel;html=1;align=center;verticalAlign=middle;resizable=0;points=[];" vertex="1" connectable="0" parent="gZ4OyTbjbwFTQt0HmbJi-109">
          <mxGeometry x="-0.5086" relative="1" as="geometry">
            <mxPoint x="18" as="offset" />
          </mxGeometry>
        </mxCell>
        <mxCell id="gZ4OyTbjbwFTQt0HmbJi-112" value="" style="endArrow=classic;html=1;rounded=0;" edge="1" parent="1">
          <mxGeometry width="50" height="50" relative="1" as="geometry">
            <mxPoint x="30" y="1600" as="sourcePoint" />
            <mxPoint x="760" y="1600" as="targetPoint" />
          </mxGeometry>
        </mxCell>
        <mxCell id="gZ4OyTbjbwFTQt0HmbJi-113" value="&lt;font style=&quot;font-size: 8px;&quot;&gt;choose show on map&lt;/font&gt;" style="edgeLabel;html=1;align=center;verticalAlign=middle;resizable=0;points=[];" vertex="1" connectable="0" parent="gZ4OyTbjbwFTQt0HmbJi-112">
          <mxGeometry x="-0.737" y="-2" relative="1" as="geometry">
            <mxPoint as="offset" />
          </mxGeometry>
        </mxCell>
        <mxCell id="gZ4OyTbjbwFTQt0HmbJi-114" value="&lt;font size=&quot;1&quot;&gt;map_screen&lt;/font&gt;" style="rounded=0;whiteSpace=wrap;html=1;" vertex="1" parent="1">
          <mxGeometry x="820" y="980" width="100" height="30" as="geometry" />
        </mxCell>
        <mxCell id="gZ4OyTbjbwFTQt0HmbJi-116" value="" style="endArrow=classic;html=1;rounded=0;" edge="1" parent="1">
          <mxGeometry width="50" height="50" relative="1" as="geometry">
            <mxPoint x="770" y="1610" as="sourcePoint" />
            <mxPoint x="870" y="1610" as="targetPoint" />
          </mxGeometry>
        </mxCell>
        <mxCell id="gZ4OyTbjbwFTQt0HmbJi-117" value="&lt;font style=&quot;font-size: 8px;&quot;&gt;display_mapScreen()&lt;/font&gt;" style="edgeLabel;html=1;align=center;verticalAlign=middle;resizable=0;points=[];" vertex="1" connectable="0" parent="gZ4OyTbjbwFTQt0HmbJi-116">
          <mxGeometry x="-0.4985" relative="1" as="geometry">
            <mxPoint x="25" as="offset" />
          </mxGeometry>
        </mxCell>
        <mxCell id="gZ4OyTbjbwFTQt0HmbJi-118" value="" style="endArrow=classic;html=1;rounded=0;" edge="1" parent="1">
          <mxGeometry width="50" height="50" relative="1" as="geometry">
            <mxPoint x="880" y="1620" as="sourcePoint" />
            <mxPoint x="980" y="1620" as="targetPoint" />
          </mxGeometry>
        </mxCell>
        <mxCell id="gZ4OyTbjbwFTQt0HmbJi-119" value="&lt;font style=&quot;font-size: 8px;&quot;&gt;load_mapInfo()&lt;/font&gt;" style="edgeLabel;html=1;align=center;verticalAlign=middle;resizable=0;points=[];" vertex="1" connectable="0" parent="gZ4OyTbjbwFTQt0HmbJi-118">
          <mxGeometry x="-0.3133" y="-1" relative="1" as="geometry">
            <mxPoint as="offset" />
          </mxGeometry>
        </mxCell>
        <mxCell id="gZ4OyTbjbwFTQt0HmbJi-120" value="" style="endArrow=open;dashed=1;html=1;rounded=0;endFill=0;" edge="1" parent="1">
          <mxGeometry width="50" height="50" relative="1" as="geometry">
            <mxPoint x="980" y="1640" as="sourcePoint" />
            <mxPoint x="880" y="1640" as="targetPoint" />
          </mxGeometry>
        </mxCell>
        <mxCell id="gZ4OyTbjbwFTQt0HmbJi-121" value="&lt;font size=&quot;1&quot;&gt;return results&lt;/font&gt;" style="edgeLabel;html=1;align=center;verticalAlign=middle;resizable=0;points=[];" vertex="1" connectable="0" parent="gZ4OyTbjbwFTQt0HmbJi-120">
          <mxGeometry x="0.2541" relative="1" as="geometry">
            <mxPoint as="offset" />
          </mxGeometry>
        </mxCell>
        <mxCell id="gZ4OyTbjbwFTQt0HmbJi-128" value="" style="edgeStyle=orthogonalEdgeStyle;rounded=0;orthogonalLoop=1;jettySize=auto;html=1;exitX=0.5;exitY=1;exitDx=0;exitDy=0;dashed=1;endArrow=none;startFill=0;" edge="1" parent="1" source="gZ4OyTbjbwFTQt0HmbJi-74">
          <mxGeometry relative="1" as="geometry">
            <mxPoint x="665" y="1710" as="targetPoint" />
            <mxPoint x="665" y="1010" as="sourcePoint" />
          </mxGeometry>
        </mxCell>
        <mxCell id="gZ4OyTbjbwFTQt0HmbJi-127" value="" style="rounded=0;whiteSpace=wrap;html=1;rotation=90;fillColor=#dae8fc;strokeColor=#6c8ebf;" vertex="1" parent="1">
          <mxGeometry x="638.61" y="1518.62" width="52.77" height="6.5" as="geometry" />
        </mxCell>
        <mxCell id="gZ4OyTbjbwFTQt0HmbJi-130" value="" style="edgeStyle=orthogonalEdgeStyle;rounded=0;orthogonalLoop=1;jettySize=auto;html=1;exitX=0.5;exitY=1;exitDx=0;exitDy=0;dashed=1;endArrow=none;startFill=0;" edge="1" parent="1" source="gZ4OyTbjbwFTQt0HmbJi-107">
          <mxGeometry relative="1" as="geometry">
            <mxPoint x="765" y="1700" as="targetPoint" />
            <mxPoint x="765" y="1010" as="sourcePoint" />
          </mxGeometry>
        </mxCell>
        <mxCell id="gZ4OyTbjbwFTQt0HmbJi-129" value="" style="rounded=0;whiteSpace=wrap;html=1;rotation=90;fillColor=#dae8fc;strokeColor=#6c8ebf;" vertex="1" parent="1">
          <mxGeometry x="728.61" y="1578.62" width="72.77" height="6.5" as="geometry" />
        </mxCell>
        <mxCell id="gZ4OyTbjbwFTQt0HmbJi-132" value="" style="edgeStyle=orthogonalEdgeStyle;rounded=0;orthogonalLoop=1;jettySize=auto;html=1;exitX=0.5;exitY=1;exitDx=0;exitDy=0;dashed=1;endArrow=none;startFill=0;" edge="1" parent="1" source="gZ4OyTbjbwFTQt0HmbJi-114" target="gZ4OyTbjbwFTQt0HmbJi-131">
          <mxGeometry relative="1" as="geometry">
            <mxPoint x="869.8888888888887" y="1720.7407407407406" as="targetPoint" />
            <mxPoint x="870" y="1010" as="sourcePoint" />
          </mxGeometry>
        </mxCell>
        <mxCell id="gZ4OyTbjbwFTQt0HmbJi-131" value="" style="rounded=0;whiteSpace=wrap;html=1;rotation=90;fillColor=#dae8fc;strokeColor=#6c8ebf;" vertex="1" parent="1">
          <mxGeometry x="850.56" y="1624.57" width="38.88" height="6.5" as="geometry" />
        </mxCell>
      </root>
    </mxGraphModel>
  </diagram>
</mxfile>
